<svg xmlns="http://www.w3.org/2000/svg" viewBox="0 0 337 650">
  <path fill="#3D2827" d="M143.044 642.335c-4.32 0-8.129-.361-11.323-1.074-54.197-12.095-84.233-49.963-97.091-77.938-14.389-31.307-14.322-59.061-13.323-63.657.775-3.563 5.48-8.116 13.524-8.116 1.65 0 3.202.167 4.448.302.708.076 1.376.148 1.721.148 1.008-.128 4.178-2.5 6.604-4.974l3.41-3.479 1.573 4.609c.292.856 29.77 85.857 80.379 107.076 4.477 1.877 9.499 2.829 14.926 2.829 43.852 0 105.096-60.275 125.222-80.082 5.072-4.992 6.578-6.457 7.552-7.014 1.405-.806 3.192-1.215 5.311-1.215 6.214 0 15.434 3.742 19.218 6.962 1.021.868 4.103 2.142 6.821 3.265 6.905 2.853 14.731 6.086 15.921 11.736.988 4.695-11.317 20.134-17.962 27.641-10.4 11.749-25.956 29.734-50.698 44.978-34.388 21.187-86.584 38.003-116.233 38.003z"/>
  <path fill="#AB4A4F" d="M49.746 489.125s-5.56 6.458-8.559 6.458-13.765.513-14.508 7.889C25.5 515.167 34.333 613 132.625 636.375c23.821 5.665 82.217-10.223 123.042-35.375 45.68-28.144 70.037-65.322 69.333-68.667-1.333-6.333-17.833-10.001-21.75-13.333s-16.272-8.194-21.094-5.43S184.279 620 131.806 598s-82.06-108.875-82.06-108.875z"/>
  <path fill="#3D2827" d="M140.322 619.417a131.074 131.074 0 0 1-6.612-.169c-29.698-1.526-53.354-26.733-67.97-47.61-15.76-22.513-26.643-48.762-26.553-58.239.124-13.032 5.767-17.933 8.334-19.489l3.103-43.451 215.209-33.971 1.5-1.987c-.044.401-4.627 44.809-4.627 67.674 0 23.659 41.033 40.214 41.461 40.381l1.605.63-.387 1.681c-3.407 14.81-26.626 38.672-56.464 58.029-21.024 13.64-63.093 36.522-108.59 36.522l-.009-.001z"/>
  <path fill="#FAC5A9" d="M53.208 452.75l-3.068 42.97s-8.104 2.927-8.25 18.25c-.157 16.5 38.937 100.803 92.443 103.446 74.25 3.667 160.802-64.282 167.302-92.532 0 0-41.495-17.165-41.745-40.415s4.131-63.5 4.131-63.5L53.208 452.75z"/>
  <path fill="#3D2827" d="M28.594 372.995c-4.085 0-9.163-2.446-12.634-6.087-3.215-3.372-4.809-7.385-4.608-11.603.301-6.326 2.881-10.605 4.954-14.044 1.561-2.588 2.793-4.632 2.793-6.861 0-2.618-.802-3.448-1.912-4.597-1.083-1.121-2.431-2.517-2.585-5.292-.154-2.781.951-5.059 1.839-6.89.747-1.539 1.336-2.755 1.125-3.84-.337-1.736-.427-2.944-.255-3.829-2.459-4.905-13.651-28.424-9.371-42.063 1.157-3.686 5.967-6.36 11.439-6.36 4.192 0 8.293 1.558 11.547 4.386 9.087 7.9 6.195 43.756 4.889 50.846-.57 3.098-.25 10.526.088 18.392.916 21.26 1.086 35.35-4.661 37.417-.781.283-1.672.425-2.648.425z"/>
  <path fill="#F9C5A8" d="M9.85 268.489c1.483-4.725 12.031-7.788 19.765-1.064C37.35 274.15 35.6 306.9 33.85 316.4s4.085 51.639-3.283 54.289C25.45 372.53 12.85 365.9 13.35 355.4s7.75-14.75 7.75-21-4.25-5.5-4.5-10 3.611-7.5 2.93-11 0-3.5 0-3.5-14.18-27.071-9.68-41.411z"/>
  <path fill="#E59E8A" d="M29.615 267.426c-7.735-6.724-18.283-3.662-19.765 1.064-.968 3.086-1.068 6.763-.634 10.631 0 0 4.784-12.606 15.117-2.615 6.941 6.711-.333 46.541 0 46.518.333-.023 2.165-10.023 3.249-9.69s-.929 45.364-5.422 45.182c-4.494-.182-5.603-9.385-5.382-14.117-1.656 2.918-3.207 6.344-3.429 11.002-.5 10.5 12.1 17.129 17.217 15.289 7.367-2.65 1.533-44.789 3.283-54.289s3.501-42.251-4.234-48.975z"/>
  <path fill="#81534E" d="M20.606 263.584s9.408 6.113 9.894 23.706-5 28.21-5 28.21l-1.167 7.523s1.59 3.624 3.135 1.81c0 0-2.912 23.74.297 42.51 0 0 1.13-39.553 2.766-50.782l1.636-11.229s3.378-29.991-2-38.818c-5.379-8.826-9.561-2.93-9.561-2.93z"/>
  <path fill="#E59E8A" d="M292.992 520.723s7.133 7.652-12.743 29.777c-23.717 26.402-62.393 44.439-63.289 44.806-26.944 9.698-53.936 15.362-76.377 12.361-27.417-3.667-45.25-26-58.949-40-13.699-14-16.301-30.667-16.967-41.133-.343-5.378 1.075-14.696 2.58-22.698 2.077 4.064 4.5 8.257 7.296 12.219-2.457-5.114-3.043-11.803-3.043-11.803 1.25 5.75 3.333 10.5 3.333 10.5-.667-1.667-1.167-7.583-1.167-7.583.917 7.083 5.833 15.167 5.833 15.167s1.789 3.351 5.783 7.912c-.147-.178-1.32-1.558-4.283-9.6 0 0 4.187 10.563 10.328 15.661a71.927 71.927 0 0 0 16.172 10.777c.327.159.636.32.953.48l-.019-.016s-4.934-3.797-8.184-7.38c0 0 7.301 5.431 8.208 6.125 1.323 1.012 5.305 4.173 6.582 5.024 0 0-5.916-5.888-8.124-8.19 0 0 10.333 7.833 16.421 15.671l5.912 8.788s1.875-5.313 3.562-9.25c0 0-.625 4-2.187 7.042 0 0 4.145-4.878 6.062-8.917 0 0-1.112 3.597-3.899 7.419 1.327-1.121 3.977-2.687 7.397-5.42h-.001s8.816-8.063 10.628-10.438c0 0-2.889 4.167-4.507 5.834.003-.004 6.662-5.858 9.572-8.712 0 0-2.08 2.544-4.242 5.108 5.445-4.142 12.863-10.675 12.863-10.675s-3.763 4.189-6.723 6.943c2.154-1.292 8.665-5.375 14.811-11.354 2.562-2.493 6.844-7.2 8.583-12.917 0 0-.817 5.365-3.083 8 0 0 3.917-3.583 6.333-8.417 0 0-.948 2.108-2.194 4.602a142.438 142.438 0 0 0 14.027-17.602s-.75 3.5-2 5.5c0 0 2.702-2.492 6.785-10.406 21.226-15.92 40.011-36.34 50.802-50.272l-.003.006c.308-.399 5.436-6.787 7.441-5.037 1.089.95.918 21.014.918 21.014s2.468-30.629 2.513-34.14c1.544-12.259.612-17.081.612-17.081l-210.813 31.78.341 7.341-3.408 37.628s-8.104 2.927-8.25 18.25c-.157 16.5 39.125 101.392 92.625 104.142 31.401 1.614 63.223-9.083 91.345-23.915l.091-.019c24.625-12.25 42.875-26.875 59.22-43.154 16.345-16.279 17.166-25.586 17.166-25.586l-8.643-4.162z"/>
  <path fill="#3D2827" d="M283.229 381.927c-2.514 0-4.763-1.009-6.686-2.999-9.188-9.506-8.238-40.529-8.193-41.846.299-7.361 3.453-71.412 22.559-74.604 1.626-.973 8.048-4.588 13.727-4.588.184 0 .365.004.547.012 7.771.324 14.15 12.81 14.665 23.757.477 10.148-2.541 18.016-4.966 24.338l-.661 1.733c-.621 1.646-1.288 3.3-1.94 4.917-1.81 4.486-3.681 9.125-3.681 11.752 0 .627.021 1.394.043 2.271.127 4.814.338 12.872-1.984 20.324-2.578 8.272-2.532 11.147-1.836 15.326.524 3.146-.91 7.458-3.654 10.984-2.717 3.492-7.898 7.816-17.152 8.588a8.816 8.816 0 0 1-.788.035z"/>
  <path fill="#F9C5A8" d="M291.6 264.4s7.5-4.75 13.5-4.5 12.25 11.206 12.75 21.853-3 18.647-5.5 25.272-5.75 13.375-5.75 17.375.798 13.5-1.851 22-2.649 11.75-1.899 16.25-4 16-19 17.25-13.5-42.75-13.5-42.75 2.869-70.659 21.25-72.75z"/>
  <path fill="#E59E8A" d="M298.75 270.276c2-7.724 9.983-8.986 9.983-8.986-1.188-.841-2.416-1.339-3.633-1.389-3.691-.154-7.944 1.584-10.675 2.944l-4.513 20.11s4.089 3.545 8.089 4.712 2.25 25.333 2.25 28.895c0 3.562-.25 18.188-3 27.688s1.5 12.031 1.5 12.031c-1-4.969 2.75-14.281 5.25-18.809 1.165-2.111 2.103-6.414 2.641-10.871a90.912 90.912 0 0 1-.041-2.201c0-.939.184-2.033.49-3.238.132-3.109.011-5.848-.432-7.412-1.295-4.573 6.592-15.75 7.842-30.796s-15.751-12.678-15.751-12.678zM283.642 310.923c.127-.198 5.525 11.411 4.525 17.411s-10.027 17.583-9.917 16.757c.109-.826 3.2-30.746 5.392-34.168z"/>
  <path fill="#E59E8A" d="M289 365.25c-11.75 1.5-9-17.759-9-17.759v-3.241l-8.945 11.259c1.244 11.903 4.489 25.084 12.795 24.391 15-1.25 19.75-12.75 19-17.25-.454-2.721-.628-4.992-.113-8.237-2.241 4.248-6.529 9.917-13.737 10.837z"/>
  <path fill="#81534E" d="M306.584 273.429c-7.092-2.614-18.804 11.051-18.804 11.051s-3.161 18.28-3.364 19.269c-.179.872 1.991 2.05 2.51 2.318-.057 3.674.414 8.655 1.574 13.909 2.167 9.809-2.4 17.691-2.4 17.691s-7.741 6.598-3.902 8.074c3.839 1.477 4.792 12.65 4.792 12.65s.677-3.89 0-8.057c-.676-4.167 1.844-10.667 2.922-13.167s7.142-.833 6.981-16.5c-.133-12.975-5.619-18.298-7.822-19.916 2.224-5.43 5.877-13.031 8.929-13.085 4.75-.083 3.487 24.838 3.487 24.838s12.189-36.461 5.097-39.075z"/>
  <path fill="#3D2827" d="M288.25 302.75c-5.595-1.624-9.738 4.798-7.869 10.024.203.568 4.619 2.726 4.619 8.726s.129 12.5-2.31 15.25-6.94 9.75-5.69 12.25l.009.014c-1.136 6.17-3.831 21.218-3.531 23.486.378 2.865 4.771 5.298 4.771 5.298-2.002-2.827-3.172-7.85-1.464-17.298 1.695-9.373 6.146-15.267 6.216-15.358.249-.16.499-.301.749-.392 2.75-1 3.25-2.5 4.25-7s5.507-4.75 7.003-9.75c1.497-5-1.158-23.626-6.753-25.25z"/>
  <path fill="#3C2829" d="M295.415 283.873c-1.001.319 8.335-9.584 11.085-10.103s4 9.897 3 16.564-5.75 17.917-5.25 23.667 1.25 15.25-.75 19.5-7.75 11-6 20.25c0 0-2.919-1-2.085-6.25s2.085-8 4.585-12.75 1.75-8 1.5-18 1.107-18 1.054-22.75c-.054-4.751-.473-12.256-7.139-10.128z"/>
  <path fill="#7D524E" d="M94.739 600.864C55.833 565.09 48.708 529.311 47 517.667c-1.833-12.5 6-18.333 6-18.333s2.168-28.405 3.182-39.919c-2.153-4.247-3.011-5.917-3.011-5.917l-3.733 41.669s-8.104 2.927-8.25 18.25c-.116 12.127 21.072 61.284 53.551 87.447z"/>
  <path fill="#3D2827" d="M133.252 521c-29.625 0-54.61-25.906-70.354-47.64-17.344-23.94-30.902-45.999-32.398-58.027-2.667-21.433-3.391-45.482-3.123-69.106.11-9.678 1.312-20.428 2.474-30.824 1.487-13.3 2.891-25.863 1.793-34.292-.872-6.694-2.963-18.676-5.178-31.362-2.912-16.681-5.923-33.929-6.971-43.533-.917-8.409 1.415-49.115 29.318-80.23 20.67-23.049 49.879-34.736 86.814-34.736 49.147 0 92.328 18.408 121.586 51.833 14.615 16.695 25.201 36.315 31.465 58.316 6.358 22.331 10.792 46.562 4.681 70.366-4.603 17.927-8.129 20.964-15 72.5-1.431 10.727-2.561 19.848-3.557 27.895-3.877 31.289-5.48 44.24-13.415 58.957C251.447 449.551 188.219 521 133.252 521z"/>
  <path fill="#F9C5A8" d="M291.377 271.5s-8 20-15 72.5-8.127 67.604-17.877 85.688S187.127 519 133.252 519c-31.029 0-58.285-29.688-76.347-58.02-.664-1.041-1.017-4.527-1.656-5.564C43.094 435.698 36 423.667 34.127 413c-2.893-16.476-5-44.75-4.75-66.75s6.25-50.044 4.25-65.397S23.338 223 21.483 206c-1.856-17 9.394-112.75 114.144-112.75s168.5 82.75 155.75 178.25z"/>
  <path fill="#E99C89" d="M106.375 254.75c-11.25-3-40.75-4.375-47.375-2.875S45.961 262.09 45.961 262.09C46.29 261.888 57.25 257 58 258.5s.125 1.875-7.375 7.5c-4.788 3.591-10.107 5.324-13.369 5.396-.188-.389-.326-.767-.382-1.12-.221-1.394 2.458-3.776 2.458-3.776l8.812-28.578s-12.437-12.171-13.417-16.505c-.98-4.333 12.128-25 12.128-25s-.815-25.333 0-32.333 30.484-21.338 32.273-20.799c0 0 .862-25.399 1.647-39.07-54.074 25.834-60.756 88.063-59.294 101.452 1.856 17 10.144 59.5 12.144 74.853s-4 43.397-4.25 65.397 2 50.25 4.75 66.75c.457 2.744 2.018 7.512 4.544 13.547 0 0-8.627-38.407 1.893-37.952 6.294.272 6.48 32.883 18.813 63.686.296.739.555 1.424.795 2.081 8.725-6.129 15.605-13.846 12.479-21.715-7.06-17.771-2.824-49.063-2.824-49.063-13.117 2.765-22.969-16.262-22.969-16.262l15.538 11.762s-14.353-16-19.145-22.306c-4.792-6.305-7.25-40.361-7.25-50.653 0-9.292 3.111-16.354 3.111-16.354l10.716-5.471c3.884.003 12.936.266 17.853.517a87.828 87.828 0 0 0-3.784 1.183c-14.481 4.875-18.27 10.833-18.27 10.833 9.824-6.577 22.083-10.179 29.611-11.924 3.683-.292 8.286-.959 11.847-1.622 6.917-1.288 15.041-.237 15.75-.788.807-.627 6.667-3 8.167-4.333s1.5-5.833-.959-6.381c-2.46-.549-6.465-7.922-6.465-7.922 2.575 7.197 1.924 9.137.958 10.992-.965 1.857-4.567-.045-6.702-.357s-7.724.818-8.218.872-6.115 1.295-19.165 1.523c-13.049.229-16.45-3.228-16.45-3.228-2.172 1.569-3.864 3.657-4.984 5.572-.351-.459-.784-.797-1.313-.93 1.591-1.727 10.306-13.576 17.923-15.099l8.125-1.625s31-1.625 34.125 4.25 5.835 7.5 5.835 7.5 3.79 2.653 4.665-1.548c.875-4.202-.75-13.702-12-16.702z"/>
  <path fill="#3D2827" d="M118.875 429.688s13.625 4.313 26.625.479c0 0 3.5 4.833 4.333 8 .833 3.167-10.083 11.671-18.333 11.669-5.669-.002-17.658-8.104-17.763-10.502-.05-1.169 5.138-9.646 5.138-9.646z"/>
  <g fill="#594244">
    <path d="M146.591 431.772c-1.014-1.675-1.091-1.605-1.091-1.605-13 3.833-26.625-.479-26.625-.479s-.079.072-1.142 1.902c-.242 2.343-.295 2.973.289 6.733l.604-3.447s1.958 6.542 2.875 7.792v-6.75s3.333 5.5 3.5 8.417c-.054-.482-.417-7.833-.417-7.833s3.75 4.25 4.417 8.917c0 0 .583-4.917 0-8.125 0 0 2.417 5.458 1.917 10.292 0 0 2.632-4.654 2.708-9.208 0 0 1.292 4.625 1.042 6.542 0 0 2.244-3.19 2.083-7.083 0 0 2.167 2.333 1.583 5.083 0 0 1.775-2.741 1.833-5.5 0 0 .833 3.167.417 5.5 0 0 2.213-2.833 2.5-6.417 0 0 1.833 4.083 1.167 5.583 0 0 2.079-2.721 2.167-6.583 0 0 1.032 2.543 1.023 3.709.13-.809 1.049-4.244-.85-7.44z"/>
    <path d="M147.44 439.209l-.065.39a.976.976 0 0 0 .065-.39z"/>
  </g>
  <path fill="#EDB498" d="M258.5 429.688c8.231-15.265 10.317-28.409 14.978-63.716C265.966 369.256 227 412 227 412s-17.623 59.421-66.102 77.125-96.232-33.458-96.924-54.012-22.038-53.053-26.668-51.057c-2.409 1.039-3.87 8.499-4.739 18.342.484 3.88 1.007 7.457 1.56 10.603 1.873 10.667 8.966 22.698 21.123 42.417.639 1.036.992 4.522 1.656 5.564C74.967 489.312 102.223 519 133.252 519c53.875 0 115.498-71.229 125.248-89.312z"/>
  <path fill="#E59E8A" d="M82.186 387.269s19.653 42.089 31.252 43.398c2.407.272 4.362.388 6.006.403.38.729.886 1.578 1.592 2.532 0 0-.311-1.077-.563-2.534l.257-.006c.481 1.043 1.374 2.688 2.621 3.733 0 0-1.067-2.001-1.379-3.786.18-.011.355-.024.527-.038.756.696 2.029 2.068 2.627 3.904 0 0-.264-1.982-.882-3.96 0 0 1.944 2.085 2.194 4.96 0 0-.004-2.348-.377-4.674 0 0 1.814 1.861 1.939 2.986 0 0-.251-2.305-.563-2.809 0 0 1.75 1.746 1.75 3.496 0 0 .046-2.132-.321-3.347 0 0 1.383 1.347 1.446 4.347 0 0 .328-3.213.57-4.2 0 0 .92 2.075.925 4.825 0 0 .005-3.341.567-4.764 0 0 .875 2.452.625 4.202 0 0 1.125-2.555.875-4.184 0 0 .937 1.434.812 2.746 0 0 .815-1.726.564-2.769 0 0 1.061 1.832.686 3.832 0 0 1.185-1.983.749-3.898 0 0 1.189 1.835.689 4.21 0 0 1.431-2.19.997-4.345 0 0 1.003 2.033.691 3.22 0 0 1.057-2.479.81-3.396 0 0 .822 2.396.037 5.146 0 0 1.619-2.439 1.636-5.407 0 0 .892 1.907.642 3.22 0 0 .81-1.462.911-3.454l.026.003c.092.375.525 2.35-.02 4.264 0 0 1.062-1.875 1.06-4.145l.123.014c.193.831.486 2.673-.109 4.569 0 0 1.271-2.078 1.355-4.442 2.573.243 5.023.339 7.027.048 6.898-1 24.776-22.069 31.942-44.902l-102.316 1.002z"/>
  <path fill="#3A2929" d="M88.199 389.472s20.026-4.194 25.539-4.458 18.513 2.472 19.263 2.229c.75-.243 15.325-3.743 19.288-3.743s25.514 5.972 25.514 5.972S162 412 133.625 412s-45.426-22.528-45.426-22.528z"/>
  <g fill="#E99C89">
    <path d="M265.5 188.5s-12.5 33.5-17 45.991-26.5 1.243-26.5 1.243l34.281 23.109c-2.219 16.343-25.531 9.923-25.531 9.923 6.25 8.266 13.095 5.913 27.75 6.179 9.957.181 14.23 19.068 15.32 35.981-.819 5.249.177 17.915-9.153 34.908 0 0 3.424-3.829 6.388-8.668 0 0-5.305 14.917-14.388 27.5 0 0 7.173-6.074 12.937-18.053-4.184 11.433-10.894 22.434-17.604 26.954-9.75 6.567-31.016 25.528-33.17 35.239-4.33 19.527-11.888 24.865-11.888 24.865s-21.364 53.818-13.201 62.642c10.096-6.872 19.667-15.776 28.259-23.647 1.144-1.044 5.001-31.668 12.308-47.876 7.308-16.21 21.974-28.962 21.974-28.962C245.063 403.157 237.333 412 237.333 412s3.667-14 21.168-25.736c5.033-3.375 9.805-9.433 14.599-16.629.917-7.399 2.351-15.988 3.638-25.636 7-52.499 14.095-72.499 14.095-72.499 1.249-9.357 2.658-18.588 2.472-27.634L265.5 188.5z"/>
    <path d="M172.719 345.938c.763-1.984 1.192-3.813 1.376-5.492 5.555 3.628 21.604 15.918 31.405 42.054 0 0-2.059-17.765-17.926-36.526-12.255-20.827-21.05-46.05-25.318-58.308-4.411-12.667 1.845-16.215 1.845-16.215l.001-.001-.001.002c-.434 1.882.399 6.315 1.899 6.765s6.5-1.117 7.667 0c1.167 1.117 5.167 5.783 8.083 7.117 2.917 1.333 13.25 3.583 15.25 3.792 1.884.197 14.487.321 16.43.054 3.825.584 10.508 1.753 14.147 3.461-2.031-1.068-6.376-3.149-11.855-4.623 2.48-1.296 6.172-3.129 8.214-3.927 3.263 1.199 9.852 3.902 13.397 7.325 0 0-3.538-5.117-10.872-8.515 2.798-1.515 6.207-3.78 6.207-3.78l.034-.039c2.375 1.283 6.98 3.872 8.382 5.397 0 0-2.697-4.285-7.075-6.889l1.2-1.371c2.415.836 9.05 3.19 11.876 5.947 0 0-3.948-5.024-10.959-6.995l.042-.048-9.168-3.671-47.833-1.176-7.5 2.724s-3.459.218-1.229-2.724c1.111-1.467 3.533-3.705 5.682-5.581 8.465-3.654 43.38-2.619 43.38-2.619-2.265-12.681 17.833-10.812 17.833-10.812s-6-8.597-10.333-10.264c-4.333-1.667-61.667 5.667-74.713 17.843-6.83 6.375-5.672 21.605-3.019 34.671a88.218 88.218 0 0 1-.768-3.014c-4-17-11.021-19.453-16-19-11 1-13 20-15.491 28.003-2.491 8.003-6.509 17.997-12.509 23.997-1.784 1.784-3.652 3.569-5.349 5.431l.001-.002C73 344 68.162 377.528 68.162 377.528c8.994-26.95 21.421-34.578 24.991-36.275a14.195 14.195 0 0 0 .347 3.247c2 9 15 8 15 8s-12-3-8-5c3.394-1.697 6.79.936 10.795 6.045l-14.31.121c.712.257 5.268 1.522 3.501 3.272-1.767 1.75-9.574 6.245-9.574 6.245s37.712 7.933 41.462 7.813c3.75-.12 43.349-8.544 43.349-8.544 1.78.475-5.719-2.644-9.594-3.29-4.466-.745-4.24-2.224-4.24-2.224 1.797-2.629 6.338-1.485 9.729-4.382.898-.767-.286-1.078-2.497-1.125 1.418-1.296 2.668-3.074 3.598-5.493zm-10.022 5.77c-4.7.373-9.918 1.014-12.381 1.331 5.566-5.17 13.396-8.481 14.185-4.539.289 1.45-.517 2.477-1.804 3.208z"/>
    <path d="M227.578 292.641c.81.426 1.255.692 1.255.692a9.594 9.594 0 0 0-1.255-.692z"/>
  </g>
  <path fill="#D8CFCE" d="M132.375 392.5v9.5s-.154 3.511-2.009 3.393c-5.678-.361-10.377-1.464-10.377-1.464s-.989-.929-1.364-3.054 0-11.422 0-11.422 9.125 2.672 13.75 3.047z"/>
  <path fill="#D8CFCE" d="M108.85 388.784v8.641s.328 3.258 1.698 3.786a54.56 54.56 0 0 0 6.164 1.935s1.746-.521 1.747-3.396.167-10.297.167-10.297-4.139-1.554-9.776-.669zM101.353 390.003v4.747s.248 2.305 1.431 2.938c1.184.633 6.065 2.787 6.065-.263v-8.641l-7.496 1.219zM94.74 390.608s.455 1.789.562 1.892c1.823 1.75 4.402 3.329 4.402 3.329s1.648.546 1.648-1.079v-4.747s-4.114.928-6.612.605z"/>
  <path fill="#A89296" d="M95.234 392.531s1.297-.406 2.812-.281c2.434.201 3.306 1.651 3.306 1.651s1.132-1.333 3.748-1.12c2.898.237 3.748 1.656 3.748 1.656s1.319-1.477 4.588-1.477c3.926 0 5.063 2.227 5.063 2.227s2.445-1.545 6.917-1.287c4.958.287 6.958 2.807 6.958 2.807l.125-6.659-38.125-.595.86 3.078z"/>
  <path fill="#954C4F" d="M94.7 390.521s5.447.145 6.05 1.395c0 0 1.333-1.308 3.667-1.308 2.333 0 4.433 1.308 4.433 1.308s1.483-1.5 4.817-1.308c2.413.139 4.083.642 4.792 2.352 0 0 4.625-2.571 14.042-.487l-.125-4.212c-.001 0-27.352-3.798-37.676 2.26z"/>
  <path fill="#AB4C4D" d="M173.375 390.003c-11.443 11.755-31.166 15.382-40.375 15.491-9.209-.109-28.932-3.737-40.375-15.491l-10.991-2.735s12.176 14.965 18.866 22.398c6 6.667 13.167 10.844 19 10.833 3.794-.007 10.282-.899 13.5-.991 3.218.092 9.706.984 13.5.991 5.833.011 13-4.167 19-10.833 6.69-7.433 18.314-22.533 18.314-22.533l-10.439 2.87z"/>
  <path fill="#D8CFCE" d="M133.625 392.468V402s.155 3.528 2.009 3.393c5.366-.393 10.377-1.464 10.377-1.464s.989-.929 1.364-3.054 0-11.422 0-11.422-9.125 2.64-13.75 3.015z"/>
  <path fill="#D8CFCE" d="M157.15 388.784v8.641s-.309 3.311-1.698 3.786c-2.947 1.008-6.164 1.935-6.164 1.935s-1.746-.521-1.747-3.396c-.001-2.875-.167-10.297-.167-10.297s4.139-1.554 9.776-.669zM164.647 390.003v4.747s-.248 2.305-1.431 2.938c-1.184.633-6.065 2.787-6.065-.263v-8.641l7.496 1.219zM171.26 390.608s-.46 1.784-.562 1.892c-.854.906-4.402 3.329-4.402 3.329s-1.648.546-1.648-1.079v-4.747s4.114.928 6.612.605z"/>
  <path fill="#A89296" d="M170.724 392.512s-1.259-.387-2.775-.262c-2.434.201-3.306 1.651-3.306 1.651s-1.132-1.333-3.748-1.12c-2.898.237-3.748 1.656-3.748 1.656s-1.319-1.477-4.588-1.477c-3.926 0-5.063 2.227-5.063 2.227s-2.445-1.545-6.917-1.287c-4.958.287-6.958 2.807-6.958 2.807l-.125-6.659 38.125-.595-.897 3.059z"/>
  <path fill="#954C4F" d="M171.311 390.509s-5.332.157-5.936 1.407c0 0-1.333-1.308-3.667-1.308-2.333 0-4.433 1.308-4.433 1.308s-1.483-1.5-4.817-1.308c-2.413.139-4.083.642-4.792 2.352 0 0-4.625-2.575-14.042-.492l.125-4.207c.001 0 27.238-3.81 37.562 2.248z"/>
  <path fill="#E8DEDE" d="M54.189 273.32s5.333 4.167 21.167 3c15.833-1.167 20.5-2.167 22.667-2.167s5.702 1.69 6.702.357-6.877-11.476-13.195-12.309-28.508 2.452-37.341 11.119z"/>
  <path fill="#C8B7B6" d="M103.5 274.063s.271-.514.619-1.26c-1.727-3.316-7.745-9.892-12.784-10.557-6.318-.833-28.506 2.452-37.34 11.119 0 0 3.454 2.692 13.038 3.141l-.002-.006s-8.438-1.25-9.563-3.469c-.414-.816 7-4.907 10.688-6.485s22.75-2.285 24.375-1.775 8.75 5.01 9.031 6.51-3.729 2.917-3.729 2.917c1.342.001 3.207.648 4.67.824l.997-.959z"/>
  <path fill="#3C2829" d="M71.091 277.139c-3.267-2.592-5.141-6.46-5.141-10.614 0-.077.004-.152.01-.228l.019-.655.523-.183c8.204-2.865 17.417-4.17 22.506-4.17.953 0 1.772.044 2.436.132l.58.105.226.445c.531 1.486.8 3.018.8 4.553 0 3.327-1.229 6.532-3.461 9.025l-.199.222-.296.038c-3.786.48-8.322.912-13.868 1.321a79.262 79.262 0 0 1-3.616.181l-.291.008-.228-.18z"/>
  <path fill="#5D4121" d="M66.766 266.215c-.003.104-.016.206-.016.31 0 4.05 1.894 7.651 4.838 9.986a75.809 75.809 0 0 0 3.579-.179c6.63-.489 10.917-.948 13.825-1.316a12.688 12.688 0 0 0 3.258-8.491 12.7 12.7 0 0 0-.753-4.284c-.052-.008-.105-.02-.157-.027-4.131-.544-15.044.672-24.574 4.001z"/>
  <path fill="#F9C5A8" d="M111 320.5s-5.833 12.5-4.167 21.75c0 0-7.083-4-10.583 0 0 0-2.25-8.5 14.75-21.75z"/>
  <path fill="#3D2827" d="M216.061 228.21c-1.327-.203-7.008-.903-15.874.318 0 0 7.686-.119 9.95.074.203.017.437.048.688.085-9.327 1.741-25.907 7.624-57.709 14.12-.828.14-.829-4.12-.829-4.12-.85 1.188-1.163 4.375-1.163 4.375-.688-1.187-.5-5.688-.5-5.688-.768 1.875-1.438 5.875-1.438 5.875-.312.061-.75-3.125-.75-3.125-1.375 3 .163 6.12.567 7.475h.001c1.442 4.595 4.527 11.934 9.828 13.4 1.167 0 57.167-15.667 62-16.167l29 6.082c.001.001-24.761-21.8-33.771-22.704z"/>
  <path fill="#F9C5A8" d="M133.625 272.546c-3.858.376-7.958 1.167-13.792 26.417-5.833 25.25-8.214 37.75-7.714 42.5s10.755 9 17.755 9c11.083 0 15.063-2.921 18.727-6.82 3.863-4.11-3.248-37.02-5.37-51.782-.535-3.734-2.875-19.971-9.606-19.315zM160.654 324.25c-1.724-.781-4.854 17.75-3.504 17s11.767-.142 13.433 3c0 0 4.975-13.25-9.929-20z"/>
  <path fill="#FFD2C2" d="M133 275c-2.8-.667-7 4.5-11.167 25.167s-7.383 38.333-5.608 42.083 12.441 8.417 24.358 4 6.083-20.025 6.083-20.025 1.441 18.473-14.844 17.775c-14.828-.635-10.758-17.706-9.822-26.125 1.037-9.331 3.25-27.542 6.375-34.875 2.437-5.718 4.625-8 4.625-8z"/>
  <path fill="#3D2827" d="M119.468 240.125s-.438 3.186-.75 3.125c0 0-.669-4-1.438-5.875 0 0 .188 4.501-.5 5.688 0 0-.313-3.188-1.163-4.375 0 0 .108 4.822-1.615 4.738-5.67-.309-14.5-.986-22.003-2.425-9.807-1.881-22.859-5.059-31.308-5.611l.003-.001s6.305-.201 16.305 1.237c0 0-9.438-3.125-21.688-1.813-7.625.817-10.062 6.938-10.062 6.938s1.502-3.77 8.829-5.901c-6.611 2.15-12.566 11.823-14.745 30.65-.047.407 10.167-7.375 17.157-10.68.615-.291-2.634 2.18-2.033 1.871 4.12-2.119 8.219-3.799 11.042-3.858 8-.167 23.833.167 45.667 6.333 0 0 6.597-4.692 8.379-14.487.468-1.542.831-3.573-.077-5.554zm-65.01-4.391l.002.003c-.046.013-.092.024-.137.038.046-.013.087-.028.135-.041zM287.013 282.716l-2.201 6.972s.585-5.944.605-6.972l-1.105 3.784v-3.784s-.542 2.294-.562 2.097c-.162-1.565-.541-1.947-.541-1.947s-4.256 1.299-4.431 1.24c-.555-.186-.903-4.044.159-4.544 1.063-.499 8.59-.068 8.076 3.154z"/>
  <path fill="#AB4C4D" d="M166.5 381.5l-7-3c-7-3-15.983 1.791-19 3-2.275.911-7.185 1.01-7.5 1.017-.315-.007-5.225-.105-7.5-1.017-3.017-1.209-12-6-19-3l-7 3s-13 5-20 5c0 0 13 5 19 4s10-2 15-2c4.811 0 10.556 3.693 19 3.973 0 0 .332.016.5.014.168.003.5-.014.5-.014 8.444-.28 14.189-3.973 19-3.973 5 0 9 1 15 2s19-4.125 19-4.125c-7 0-20-4.875-20-4.875z"/>
  <path fill="#3D2827" d="M205.391 428.289l.004-.008c-.297-.464-3.363-4.531-5.145-6.281l-.004.018c-2.374-2.341-4.308-3.706-4.308-3.706 1.812 2.312 3.083 7.352 3.083 7.355-.354-1.52-2.458-3.105-2.458-3.105 1.063 2 .938 4.938.938 4.938-1.716-3.546-4.563-5.5-4.563-5.5.625 1.188.644 3.844.644 3.844-1.356-1.906-4.831-3.844-4.831-3.844 1.75 2.063 2.349 5.993 2.349 5.993-.401-1.132-3.099-2.556-3.099-2.556 1.308 1.744 1.677 5.082 1.68 5.105l-.001.002c-.635.104-2.991-2.42-2.991-2.42.5 2.625 1.563 4.125 1.563 4.125-1.938-.688-3.313-3.938-3.313-3.938-.5 2.375.128 3.869.128 3.869-.921-1.048-3.191-1.806-3.191-1.806 1.394 2.352 1.629 5.196 1.63 5.201-.371-1.124-2.192-2.077-2.192-2.077 1.059 1.994 1.373 5.115 1.375 5.134-.292-1.826-1.75-2.884-1.75-2.884.604 1.938-.123 4.248-.123 4.248.189-1.877-1.502-4.123-1.502-4.123.458 2.166-.5 4.107-.5 4.107-.042-2.357-1.687-4.17-1.687-4.17.187 2.313-.371 4.281-.371 4.281-.059-1.844-3.254-4.156-3.254-4.156.873 3.054.691 5.548.69 5.561-.061-1.563-3.127-4.374-3.127-4.374 1.061 2.996 1.062 7.497 1.062 7.508l-.001.001c-1-.055-2.562-3.946-2.562-3.946-.542 2.875.239 6.689.239 6.689-.572-2.648-2.552-3.814-2.552-3.814.812 2.063-.184 6.171-.184 6.171-.046-2.733-1.837-4.963-1.837-4.963.333 2.438-.791 4.471-.791 4.471-.187-1.32-2.875-3.742-2.875-3.742 1.125 3.063.607 4.985.607 4.985-.58-1.702-2.524-2.652-2.524-2.652.75 1.688.979 3.917.979 3.917-.917-.25-1.75-2.458-1.75-2.458.213 1.7.768 3.164.93 3.568-.348-.945-1.68-2.151-1.68-2.151.895 2.29.784 4.311.783 4.315-.189-1.994-1.698-3.18-1.698-3.18.833 2.804.671 4.541.67 4.551-.193-1.625-1.255-2.687-1.255-2.687.271 2.563-.352 4.125-.352 4.125-.009-1.823-.991-2.865-.991-2.865.031 1.188-.969 1.875-.969 1.875.344-1.563-.5-3.219-.5-3.219.063 1.656-.906 2.969-.906 2.969-.156-2.219-1.313-3.5-1.313-3.5.469 2.063-.741 3.512-.741 3.512-.272-2.207-2.134-4.012-2.134-4.012.5 2.031.313 3.876.313 3.876-.687-.311-1.469-2.282-1.469-2.282-.124 2.913.341 5.355.349 5.396v.001c-.371-1.919-1.505-2.96-1.505-2.96.218 2.336-.652 4.417-.658 4.431h-.001c.34-2.659-.747-4.837-.747-4.837.031 2.218-1.346 3.66-1.346 3.66.404-2.902-.966-5.347-.966-5.347.313 2.375-1.207 3.98-1.207 3.98-.051-2.208-1.074-4.105-1.074-4.105.125 1.938-.567 3.641-.567 3.641-.005-1.015-.776-2.079-.776-2.079-.031 2.61-1.039 4.866-1.05 4.891l-.002.004c.447-2.073-.698-4.364-.698-4.364-.062 2.836-1.361 5.068-1.368 5.08l-.001-.001c.681-3.581-.568-5.892-.568-5.892.062 2.094-1.283 3.251-1.283 3.251-.158-1.686-1.623-4.345-1.623-4.345.188 2.813-1.408 4.906-1.408 4.906.217-1.406-.592-3.406-.592-3.406.031 3.111-1.29 5.238-1.302 5.257l-.003.003c-.834-.492-.726-4.322-.726-4.322-1.25 2.406-.604 4.969-.604 4.969-1.5-2.583-.875-6.625-.875-6.625-1.042.833-1.458 2.958-1.458 2.958-.292-1.208-.167-2.542-.167-2.542-1.041 1.665-1.807 4.263-1.808 4.268.358-1.69-.192-4.226-.192-4.226-.375 3.207-2.163 5.408-2.165 5.41.626-2.464.373-4.952.373-4.952-.375 1.167-1.557 2.032-1.557 2.032-.802-2.35-.068-4.073-.068-4.073-1.786 1.911-2.914 4.842-2.921 4.86.411-1.139.566-3.568.566-3.568-.726 2.982-3.273 4.864-3.304 4.887h-.002c1.336-2.485 1.203-4.512 1.203-4.512-.748 2.492-2.645 3.94-2.657 3.949l-.002-.002c.3-3.089 1.7-5.947 1.7-5.947-.792.375-1.5 1.25-1.5 1.25l.958-2.458c-1.917 1.125-3.054 2.756-3.054 2.756.488-1.035.637-2.715.637-2.715-.998 2.203-3.08 3.465-3.09 3.471h-.002c-.008-1.32.966-3.471.966-3.471-1.37 1.31-1.785 2.442-1.91 2.96.435-2.403.452-5.419.452-5.419-.292.875-1.466 2.067-1.466 2.067l.466-1.067c-2.431 1.236-4.583 4.161-4.631 4.226l-.004.001c-.005-1.061 1.76-3.394 1.76-3.394-2.175 1.272-3.131 2.979-3.159 3.03l-.004-.003c.014-1.798 2.663-5.316 2.663-5.316-2.856 1.948-3.356 3.601-3.362 3.622v-.003c.678-3.408 1.654-4.871 1.654-4.871-2.91.956-4.889 3.195-4.898 3.205h-.001c-.024-1.085 1.274-2.414 1.274-2.414-1.496.748-2.533 2.403-2.54 2.413h-.001c.17-1.627 2.79-4.124 2.79-4.124-2.237 1.116-3.381 2.9-3.394 2.921v-.003c1.353-3.823 3.186-5.29 3.186-5.29-1.083.208-2.285 1.115-2.285 1.115.34-.677 1.494-1.74 1.494-1.74-2.772 1.015-4.679 2.669-4.912 2.876l-.042.01c-.013-1.252 1.829-3.261 1.829-3.261C92.333 445 91 447.333 91 447.333c.375-1.792 2.208-3.458 2.208-3.458-2.115.83-2.884 2.154-2.891 2.166v-.002c.941-3.536 2.225-4.997 2.225-4.997-2.165.625-4.032 2.269-4.034 2.272.591-1.978 2.868-3.897 2.868-3.897-2.038.748-4.813 3.793-4.824 3.805.717-1.652 3.324-3.971 3.324-3.971-2.205.707-3.682 2.336-3.687 2.341l.001-.002c1.354-2.573 3.061-4.673 3.061-4.673-2.75.917-4.132 1.984-4.132 1.984.701-2.183 2.549-4.067 2.549-4.067-1.292.104-2.477.725-2.477.725l.014-.024.094-.153c.562-.802 2.661-2.57 2.661-2.57l-1.928.339c.49-.88 2.168-1.804 2.168-1.804-6.365.569-10.032 2.819-10.032 2.819 1.5-2.833 6.083-4.479 6.083-4.479-4.872.507-7.912 1.103-8.065 1.134l-.013-.001c.508-1.343 4.162-3.654 4.162-3.654-3.083.75-4.917 2.521-4.917 2.521 1.083-3.563 6-5.854 6-5.854-1.841.149-3.711.64-5.433 1.25-1.487.48-4.112 1.529-7.05 3.411l-.205.13.001.004c-7.036 4.579-16.313 13.538-14.146 30.705.25 2.5 3.167 9.417 3.417 10.167 0 0-1.596-3.998-1.763-8.582 0 0 2.915 10.495 5.338 18.91l.001.003c-.009-.044-1.66-8.098-1.826-14.082 0 0 2.723 16.396 4.84 21.244 2.558 5.646 5.867 11.936 9.953 17.726-2.457-5.114-3.043-11.803-3.043-11.803 1.25 5.75 3.333 10.5 3.333 10.5-.667-1.667-1.167-7.583-1.167-7.583C74.583 502.917 79.5 511 79.5 511s1.789 3.351 5.783 7.912c-.147-.178-1.32-1.558-4.283-9.6 0 0 4.187 10.563 10.328 15.661A71.927 71.927 0 0 0 107.5 535.75c.327.159.636.32.953.48l-.019-.016s-4.934-3.797-8.184-7.38c0 0 7.301 5.431 8.208 6.125 1.323 1.012 5.305 4.173 6.582 5.024 0 0-5.916-5.888-8.124-8.19 0 0 10.333 7.833 16.421 15.671l5.912 8.788s1.875-5.313 3.562-9.25c0 0-.625 4-2.187 7.042 0 0 4.145-4.878 6.062-8.917 0 0-1.112 3.597-3.899 7.419 1.327-1.121 3.977-2.687 7.397-5.42h-.001s8.816-8.063 10.628-10.438c0 0-2.889 4.167-4.507 5.834 0 0 6.659-5.855 9.569-8.709 0 0-2.08 2.544-4.242 5.108 5.445-4.142 12.863-10.675 12.863-10.675s-3.763 4.189-6.723 6.943c2.154-1.292 8.665-5.375 14.811-11.354 2.562-2.492 6.844-7.2 8.583-12.917 0 0-.817 5.365-3.083 8 0 0 3.917-3.583 6.333-8.417 0 0-.948 2.108-2.194 4.602a142.438 142.438 0 0 0 14.027-17.602s-.75 3.5-2 5.5c0 0 3.917-4.758 8.009-12.7.193-.43 2.566-5.87 2.866-13.425 0 0 .42 3.717-.193 7.765 3.008-6.986 5.65-15.585 6.318-25.14 0 0 .745 4.261.687 7.188.002-.001 4.044-22.074-6.544-38.4zM203.281 389.384c-.02-.164-.03-.503-.048-.979 0 0-.233-2.779-2.202-6.217 0 0 1.477 1.901 1.988 3.106v-.003c-.019-.066-1.001-3.566-2.332-6.321 0 0 1.187 2.12 2.016 4.068-.56-3.193-1.734-6.928-4.252-9.638l.012-.024s-3.38-4.374-8.964-7.791c0 0 3.714 3.341 4.482 4.67 0 0-3.899-3.922-8.065-6.255 0 0 3.764 3.187 4.949 4.699l-.41-.2c-1.492-1.179-5.408-4.165-8.706-5.748 0 0 2.817 2.148 4.601 3.838-8.874-3.942-20.216-7.792-28.892-7.446l.126-.057c1.669-.747 3.831-1.336 3.831-1.336-3.417.167-8.283 1.96-8.283 1.96 1.051-.873 3.199-1.96 3.199-1.96-5.417 1.417-10.475 5.604-10.475 5.604.009.006.02.008.029.014-4.351 2.539-9.344 5.163-14.388 5.163-4.448 0-10.828-3.861-17.873-6.415-.005-.013-.002-.022-.007-.034 0 0-7.704-2.832-11.454-3.499 0 0 3.053 1 3.693 1.5 0 0-3.243-.583-6.218-.583 0 0 .698.225 1.609.552-2.96.362-6.548 1.489-10.338 3.131 1.359-1.216 3.828-3.099 3.828-3.099-4.343 2.333-10.188 6.194-10.188 6.194.719-.973 4.224-4.107 4.224-4.107-5.583 3.333-9.806 7.451-9.806 7.451 1.22-1.713 5.696-6.121 5.696-6.121-4.167 2.75-11.393 10.779-11.393 10.779.008.003.017.003.025.006a20.8 20.8 0 0 0-4.201 7.284c2.127-2.865 4.985-4.652 4.985-4.652-2.375 2.125-5.208 5.708-5.208 5.708 1.505-1.052 4.399-2.75 4.399-2.75-4.301 2.453-5.107 6.323-5.107 6.323-.238-.325 6.458-1.479 8.396-2.667 0 0-2.077 1.563-3.289 1.813 0 0 4.976-1.125 6.914-2.25 0 0-2.187 1.702-3.75 1.945 0 0 4.483-.726 7.57-1.757 0 0-2.874 1.461-6.031 2.027 3.062-.331 6.029-.721 7.524-1.111 1.746-.455 6.401-1.727 11.312-3.043 0 0 5.344-1.905 6.938-2.78 0 0-1.563 1.031-2.219 1.25 0 0 4.281-1.563 5.125-1.781 0 0-1.798.871-3.252 1.565 1.5-.391 2.889-.746 4.096-1.045a85.291 85.291 0 0 0-1.497 1.614l4.468-2.312h.002l-1.62 1.615s2.744-1.5 4.119-1.753l-1.615 1.576s1.828-1.069 4.659-1.25c5.752.868 13.935 2.921 16.359 2.679.58-.058 5.469-.781 7.594-1.719 0 0-.625.516-2.906 1.125 0 0 4.281-.875 6.563-1.563 0 0-1.438.813-3.86 1.387 2.631-.389 5.464-.86 7.775-1.256.402-.047 1.629-.073 4.401.711 0 0-1.554-.856-2.511-1.037 0 0 3.48.256 5.261 1.225 0 0-2.253-1.242-3.509-1.53l.075-.013c.772.075 3.495.405 6.091 1.543l-2.88-1.631h.002c.034.01 4.043 1.126 6.065 2.204-.19-.098-2.938-1.729-2.938-1.729s2.679.581 4.297 1.275l-2.331-1.317h.001l2.33.669s-.265-.238-.562-.493c4.892.501 10.764 1.217 15.001 1.98 4.727.851 12.881 3.47 18.994 5.691-2.135-1.301-4.171-2.68-4.171-2.68 1.563 1.094 6.531 3.25 6.531 3.25-.594-.313-3.344-2.344-3.344-2.344 1.594.969 5 2.883 5 2.883-.531-.398-1.75-1.883-1.75-1.883 1.261 1.051 4.411 3.227 5.386 3.897.142.08.25.151.304.205z"/>
  <path fill="#FFD2C2" d="M53.013 274.109l-.014.012c-.255.225 4.429 2.297 14.167 3.629 9.75 1.333 16.667-.833 19.917-1.211s9.416-1.289 11.833-.706 5.25.583 6.355 0 0-3.307 0-3.307h-.001c-.148.789-.425 1.399-.736 1.997-.965 1.857-4.567-.045-6.702-.357s-7.724.818-8.218.872-6.116 1.294-19.165 1.523C57.401 276.79 54 273.333 54 273.333c-.308.223-.605.458-.894.7l-.093.076z"/>
  <path fill="#81534E" d="M101.404 257.688c-13.774-2.51-20.509-3.007-33.242 1.255-10.273 3.439-16.849 11.215-19.849 15.178v-.001l-.01.014c-.995 1.316-1.595 2.208-1.803 2.378-.833.678-7.167-.991-7.167-.991 2.421 1.833 4.906 2.785 6.72 3.281-1.195 2.531-7.241 5.198-7.241 5.198 2.913.486 8.689-.638 8.689-.638l.029-.805c.029-.805 1.24-3.234 1.24-3.234l4.229-5.202c16.719-11.808 31.438-12.746 38.34-11.906 6.246.76 13.932 10.312 13.932 10.312s.229-1.902-.187-3.882c-.255-1.206-1.508-5.116-1.508-5.116s1.851 3.688 2.549 4.845c1.648 2.733 4.875 3.595 4.875 3.595s2.166 1.197 2.71 1.03c.544-.166 2.928-12.535-12.306-15.311z"/>
  <path fill="#3C2829" d="M104.469 273.522s.323.703 0 1.111-1.303.511-2.358.301-3.799-.809-5.236-.653c-1.438.156-6.031.892-7.125 1.071s-8.865 1.814-15.958 1.814c-7.094 0-13.479.062-19.792-3.833 0 0 6.689 3.091 13.312 3.063 9.604-.042 15.357-.663 17.583-.958 3.742-.496 9.448-1.344 12.042-1.563s4.688.833 5.438.917c.75.083 1.604.083 1.875-.271.271-.354.309-.703.219-.999z"/>
  <path fill="#E59E8A" d="M107 181.667c-.933 2.227 18.092 26.606 26.678 26.623 3.572.007 3.459-22.608 7.572-36.123V184s2.938-13.25 6.844-19.5l-3.344 12s8.782-17.121 16.917-23.5c10.277-8.059 32-28.667 58.108-26.776 27.413 1.985-10.525-9.474-10.525-9.474S128.89 129.409 107 181.667z"/>
  <path fill="#5B2928" d="M102.351 270.276s.745 3.373-2.147 3.908c0 0 3.265 1.327 4.046.337.781-.99-.142-1.813-1.899-4.245z"/>
  <path fill="#3F2914" d="M91.993 269.048c.165-.816.257-1.658.257-2.523a12.7 12.7 0 0 0-.753-4.284c-.052-.008-.105-.02-.157-.027-4.131-.545-15.044.672-24.574 4-.003.104-.016.206-.016.31 0 2.342.649 4.525 1.753 6.409.959-.707 10.239-7.208 23.49-3.885z"/>
  <path fill="#3C2829" d="M92.876 260.748c-16.875-1.25-25.199 3.098-25.199 3.098 12.449-7.036 24.574-5.223 24.574-5.223-5.084-1.28-11.626-1.5-21.8 1.5s-20.075 13.875-21.825 15.228c-1.75 1.353-9.292.169-9.292.169 3.708 3.272 9.437 3.802 9.437 3.802s1.859-2.761 4.229-5.202c3.637-2.845 10.431-6.557 17.456-8.943.049 4.329 3.75 7.823 8.312 7.823 4.592 0 8.316-3.542 8.316-7.91a7.52 7.52 0 0 0-.563-2.838c2.059-.016 3.945.151 5.521.539 7.916 1.949 12.427 10.731 12.427 10.731s-3.032-10.834-11.593-12.774z"/>
  <path fill="#E8DEDE" d="M75.291 271.295l-3.749 3.828s-3.339-2.189-3.708-6.665c0 0 3.393-.964 5.024-1.297a.226.226 0 0 1 .256.146l.554 1.431s-1.917 1.511-2.021 1.761l.255.457 2.307-1.123s.707.772 1.082 1.137c.091.09.09.233 0 .325zM86.344 264.188c.125-.031 2.281-.5 2.688 0 .406.5-.031 2.906-.281 2.938s-2.688-.188-2.688-.188l.281-2.75z"/>
  <g fill="#594244">
    <path d="M180.803 372.292c1.494.664 3.07 1.335 4.514 1.938l-.029.03s8.962 3.657 10.712 5.032c0 0-2.376-2.119-3.25-2.663 0 0 4.113.822 6.834 2.663 0 0-2.669-3.432-4-4.167 0 0 3.581 2.21 4.583 2.75-1.417-2.375-1.25-3.417-3.625-6.583l-.176-.239c-1.546-1.558-3.889-3.647-6.866-5.469 0 0 3.714 3.341 4.482 4.67 0 0-3.899-3.922-8.065-6.255 0 0 3.764 3.187 4.949 4.699l-.41-.2c-1.492-1.179-5.408-4.165-8.706-5.748 0 0 2.817 2.148 4.601 3.838-8.874-3.942-20.216-7.792-28.892-7.446l.126-.057c1.669-.747 3.831-1.336 3.831-1.336-3.417.167-8.283 1.96-8.283 1.96 1.051-.873 3.199-1.96 3.199-1.96-5.417 1.417-10.475 5.604-10.475 5.604.009.006.02.008.029.014-4.351 2.539-9.344 5.163-14.388 5.163-4.448 0-10.828-3.861-17.873-6.415-.005-.013-.002-.022-.007-.034 0 0-7.704-2.832-11.454-3.499 0 0 3.053 1 3.693 1.5 0 0-3.243-.583-6.218-.583 0 0 .698.225 1.609.552-2.96.362-6.548 1.489-10.338 3.131 1.359-1.216 3.828-3.099 3.828-3.099-4.343 2.333-10.188 6.194-10.188 6.194.719-.973 4.224-4.107 4.224-4.107-5.583 3.333-9.806 7.451-9.806 7.451 1.22-1.713 5.696-6.121 5.696-6.121-4.167 2.75-11.393 10.779-11.393 10.779.008.003.017.003.025.006a20.785 20.785 0 0 0-4.184 7.236c.008-.001.02-.008.028-.01 1.892-2.524 4.333-4.197 4.84-4.529l.1-.107s2.333-2.583 6.833-4.583c0 0-3.5 3.667-3.417 3.583.083-.083 7.333-4.917 12.25-6.917l-3.333 2.833s5.833-3.167 11.25-4l-3.292 1.854s3.785-1.771 6.111-1.854 6.076 2.104 6.076 2.104-1.625-2.75-4.812-4c0 0 5.375 1.688 7.937 3.5 0 0-.812-1.75-2.125-2.375.346.202 6.125 2.188 11.063 3.063 0 0-3.088 0-4.888-.313 0 0 3.075 1.417 9.763 1.615 0 0-1.75.635-2.875.635 0 0 3.09 1.183 10.235.876 7.144.307 10.235-.876 10.235-.876-1.125 0-2.875-.635-2.875-.635 6.688-.198 9.763-1.615 9.763-1.615-1.8.313-4.888.313-4.888.313 4.938-.875 10.716-2.86 11.063-3.063-1.313.625-2.125 2.375-2.125 2.375 2.563-1.813 7.938-3.5 7.938-3.5-3.188 1.25-4.813 4-4.813 4s3.75-2.188 6.076-2.104 6.111 1.854 6.111 1.854l-3.292-1.854c5.417.833 11.25 4 11.25 4l-3.333-2.833c4.917 2 12.167 5.833 12.25 5.917.087.083-3.413-2.583-3.413-2.583z"/>
    <path d="M71.622 379.403a99.073 99.073 0 0 0 2.159-2.208 38.003 38.003 0 0 0-2.159 2.208z"/>
  </g>
  <path fill="#FFD2C2" d="M158.384 333.919c.436-1.146 4.282-1.169 4.069 2.248-.119 1.913 5.24 1.648 6.536 1.616 1.297-.033 1.806 3.032.885 3.792-.921.759-4.458-1.752-12.017-1.074.33-.418-.707-3.334.527-6.582z"/>
  <path fill="#81534E" d="M40 289.125S53.625 284.71 67.25 284c0 0-9.25-.755-16.125-.127S40 289.125 40 289.125z"/>
  <path fill="#3D2827" d="M309.333 141.833C309 124 298.25 99.5 293.167 95c-3.862-3.419-9.69-6.826-19.729-13.274 6.179 2.549 13.729 5.441 13.729 5.441-2.833-1.333-30.422-15.994-30.422-15.994 9.578 4.34 23.256 9.994 23.256 9.994-7.667-4.667-35.196-17.335-35.196-17.335 6.971 2.499 17.363 6.501 17.363 6.501-18.478-10.123-46.973-23.654-48.792-24.521-3.546-1.689-7.125-3.375-10.351-4.735a4731.049 4731.049 0 0 1 12.309 2.423c-12.271-5.75-19.997-8.242-19.95-8.375 4.064.083 9.95 1.208 9.95 1.208-5.667-5-22.5-7.833-22.5-7.833 9.5-1.667 18.786-1.953 19.833-1.667-13.167-3.833-28.667 0-28.667 0 1.833-3 8.833-4.833 8.833-4.833-9-.5-13.167 4-13.167 4-.191-1.226 1.667-6 1.667-6-4 2-4.325 7-4.325 7-8.992-13-20.175-17-20.175-17 2.833 3.167 4.5 8.333 4.5 8.333-4.333-.667-12.667-9.5-12.667-9.5 2.598 7.014 7.734 10.909 9.946 12.585-2.16-1.346-6.87-4.173-15.112-8.419-11-5.667-31-7.667-31-7.667 11.833 3.333 21.5 16 21.5 16-12.833-2.165-25.333-8.832-25.333-8.832 3.831 11.994 9.118 15.804 9.123 15.808-2.876-1.191-7.957-1.642-7.957-1.642 3.557 1.238 10.863 6.243 10.864 6.243-4.803-2.924-18.03-2.076-18.03-2.076 5.5.333 16.833 6.333 16.833 6.333-12-3.833-23.667 1.167-23.667 1.167 8.929.11 17.271 2.043 21.899 3.339-7.902 1.977-24.639 3.274-42.691 11.216l.001-.004C65.043 52.884 47.5 60 34.5 69c0 0 3.592-1.516 8.068-3.002a100.2 100.2 0 0 0-3.897 3.025C35.549 70.89 31.639 73.459 26.834 77c0 0 2.933-1.484 6.334-3.086-9.63 9.321-15 19.142-17.334 29.086-3.833 16.333-4 53.333-3.833 76 .122 16.562 1.667 45.121 3.206 61.977l.002.034c.187 2.466.419 4.668.68 6.644.331 2.82.651 4.914.945 6.011.059.219.125.417.198.598 1.648 7.42 3.575 9.32 3.575 9.32 9.106 2.084 12.561 16.916 12.561 16.916-.167-2-2.466-11.199-2.466-11.199 2.534 4.968 5.633 18.366 5.633 18.366-.167-7.167-11.194-64.877-11.265-65.368-.236-1.621-.401-2.632-.401-2.632l11.587-9.5-7.92 2.667c-.484-.968 11.807-13.869 12.171-14.779l-.005-.054-9.625 8.5s5.435-6.511 9.53-11.631c0 0-4.905 3.506-5.53 4.506 0 0 3.317-4.42 5.494-6.736-.194-15.164.381-45.889.381-45.889.125 3.125.75 4.75.75 4.75-.125-2.25 1.291-8.5 1.291-8.5-.208 4 0 10.956 0 10.956 2.826-3.539 13.137-14.936 29.608-16.172-.819-2.621-1.525-6.409-1.525-6.409.875 2.75 3.003 6.32 3.003 6.32-.874-3.682-1.504-12.696-1.504-12.696 1.768 9.864 4.373 15.669 5.591 17.995 4.818 8.541 14.395 25.019 20.201 31.672 8 9.167 27.333 32.333 29.667 31.667 1.839-.525 3.576-15.642 7.002-26.677v-.005S137 168.125 143.625 157c0 0-2.625 7.054-3.625 10.25 0 0 3.25-6.625 10.625-15.375 0 0-5.388 8.043-8.488 14.387 8.068-10.039 24.57-26.527 41.67-35.272l-.027.007c.199-.102 13.157-7.497 24.094-9.372 0 0-7.423 2.248-10.376 4.061 0 0 5.876-2.186 16.938-2.998 0 0-2.928.795-6.374 1.793 15.535-.687 16.603 7.019 16.603 7.019s14.333-3 19.5 13.833c.366 1.192.679 2.431.947 3.703-.007-.062-.788-6.557-2.447-10.953 0 0 2.917 5.251 3.5 10.959 0 0 .417-3.042 0-6.542 0 0 1.917 6.417.75 19-.001.008-.689 10.829-1.123 15.196.543-2.479 1.922-8.75 2.644-11.883 0 0-1.211 10.215-2.213 15.133 0 0 1.838-4.133 3.026-6.508 0 0-1.813 6.563-5.083 14.896 0 0 11.417 12.833 11.667 15.417 0 0-6.167-5.917-6-5.417.167.5 11.333 21.333 11.333 21.333S271 237.833 272 239.5c0 0-4.845-4.22-4.25-3.063.75 1.458 7.583 18.656 6.583 31.526s2.833 17.282 5.167 15.909c2.333-1.373 7.513-1.157 7.513-1.157s6.737-10.202 11.487-35.049c4.319-22.591 5.667-41.833 6-42.333s5.167-45.666 4.833-63.5z"/>
  <path fill="#7A574D" d="M154.751 345.5c-2.864 1.643-5.551 6.033-10.233 9.383-.287.16-3.702 3.23-18.456 2.492 0 0 4.112 1.627 11.01.982-1.834.461-3.878.729-6.178.729-15.025 0-17.863-11.189-23.398-15.409-4.496-3.427-8.988-2.906-11.246-1.427s-3.099 0-3.099 0c.902 12.5 17.467 11.445 17.851 11.919.382.475 6.75 15.466 20.25 14.83 11.737-.553 12.964-5.022 16.842-9.739 1.735-2.11 5.324-5.344 5.324-5.344s16.948 3.755 17.02-4.597c.061-7.069-11.875-6.007-15.687-3.819z"/>
  <path fill="#FFD2C2" d="M178.694 266.958c.129-.134-9.194 4.042-9.361 6-.167 1.958 5.042 1.667 6.417 1.458 1.375-.208 5.417-.712 6.292-.647s13.224 3.836 17.43 4.231c7.028.66 16.028.277 21.09-1.271 5.717-1.748 7.25-4.604 7.25-4.604l-.812-.673L216.833 273s-40.948-3.114-38.139-6.042z"/>
  <path fill="#E8DEDE" d="M171.667 273c.692 1.73 5.667.5 9 0s13.167 3.912 26.333 3.539c13.167-.373 17.5-1.803 20-5.088 0 0-11.667-8.761-24.5-9.273S170.667 270.5 171.667 273z"/>
  <path fill="#382B26" d="M152.558 352.878c-.333-.085 7.859-7.878 12.627-4.569 3.79 2.631-.102 7.774-12.627 4.569z"/>
  <path fill="#C8B7B6" d="M216.588 275.901c5.984-.754 8.657-2.143 10.412-4.449 0 0-11.667-8.761-24.5-9.273-8.724-.348-20.291 3.622-26.494 6.986.038.295 2.033 4.275 2.033 4.275l1.479-.253c.06 0-2.309-2.936-1.524-3.454 2.413-1.592 8.378-3.178 14.257-4.315 7.75-1.5 26.667 4 28.083 4.583 1.414.582 1.471 4.377-3.746 5.9z"/>
  <path fill="#3A2A26" d="M110.041 352s-1.207-4.083-5.374-5.167c-4.167-1.083-6.268 1.407-4.25 3.417s9.247 1.833 9.624 1.75z"/>
  <path fill="#3C2829" d="M205.25 276.729c-3.414 0-11.329-.971-11.527-1.203a13.79 13.79 0 0 1-3.321-9.001c0-1.071.137-2.176.406-3.285l.116-.479.48-.112c3.692-.858 7.059-1.293 10.009-1.293.378 0 .751.007 1.119.022 4.733.189 9.824 1.484 15.133 3.851l.45.201.034.68c.01.138.019.275.019.416 0 3.657-1.463 7.174-4.039 9.77-.186.186-8.878.433-8.879.433z"/>
  <path fill="#3A2A26" d="M164.766 322.766s10.528 8.677 9.217 18.114c-1.514 10.901-9.23 13.872-11.727 13.857 0 0 13.32 1.492 14.702-11.82 1.389-13.374-12.192-20.151-12.192-20.151z"/>
  <path fill="#5D4121" d="M191.585 263.429a13.062 13.062 0 0 0-.384 3.097 13.03 13.03 0 0 0 3.713 9.12c3.569.594 7.631 1.02 12.086.894 2.26-.064 4.243-.162 6.018-.292 2.664-2.395 4.35-5.857 4.35-9.722 0-.191-.02-.377-.029-.566-4.213-1.877-9.42-3.565-14.839-3.781-3.371-.135-7.167.379-10.915 1.25z"/>
  <path fill="#5B2928" d="M171.667 273c.565 1.411 3.979.853 7.028.328-2.468-2.085-1.939-4.552-1.937-4.562-3.633 1.651-5.438 3.367-5.091 4.234z"/>
  <path fill="#3F2914" d="M215.891 272.513a12.935 12.935 0 0 0 1.476-5.988c0-.191-.02-.377-.029-.566-4.213-1.877-9.42-3.565-14.839-3.781-3.371-.134-7.167.38-10.915 1.251a13.062 13.062 0 0 0-.384 3.097c0 1.136.16 2.232.433 3.282 1.877-.387 6.736-1.308 10.491-1.308 4.272 0 11.891 3.164 13.767 4.013z"/>
  <path fill="#FCD4C1" d="M265.5 280.189c-2.833-3.524-12.584-.522-17 4.54-1.092 1.252-2.446 2.399-3.993 3.432 1.9.911 3.16 2.423 3.16 2.423-2.25-1.334-4.465-1.607-4.465-1.607l-.007-.006c-2.005 1.18-4.27 2.182-6.676 3 6.685 1.794 10.148 4.112 10.148 4.112l-4.583-1.478-8.994-1.613c-4.718 1.199-9.734 1.709-14.259 1.414-16.392-1.072-26.838 3.343-49.501-8.031 0 0 11.962 8.626 19.483 11.292 0 0-14.332-4.333-22.239-10 0 0 10.385 40.143 22.239 46.571 11.854 6.429 56.688 10.314 72.938 4.538 0 0 5.938-4.947 8.558-17.276 2.619-12.33-1.976-37.787-4.809-41.311z"/>
  <path fill="#FBD4C2" d="M77.6 299.625c5.601-1.375 12.566-6.292 12.566-6.292-10.521 3.758-24.079 5.581-34.358 6.466 2.445-1.205 5.762-2.885 7.817-4.111.148-.089-11.624 2.88-20.785 4.547.525-1.72 1.788-5.128 4.641-9.994.171-.29-5.963 4.083-6.829 10.375l-.054.009h-.006s-3.154 38.721 8.179 43.625 28-3.142 28-3.142C72.208 342.216 59 342.25 59 342.25c15.333-.225 40.151-13.321 44.575-21.75 4.424-8.429 6.465-33.21 6.465-33.21C98.046 296 77.6 299.625 77.6 299.625z"/>
  <path fill="#3C2829" d="M171.944 273.38s.993.513 2.993.389 5.328-.881 6.391-.925 4.891.698 10.391 2.031 9.031 1.52 11.281 1.687c2.25.167 8.667.021 13.812-.687 4.651-.64 8.031-1.953 10.188-4.423 0 0-1.417 4.027-9.875 5.11-4.101.525-9.411.996-14.375.73-10.49-.563-15.042-2.854-16-3.042s-4.417-1.208-5.542-1.104-4.563.681-6.333.747-2.653-.133-2.931-.513z"/>
  <path fill="#81534E" d="M28 277.667c-1.051-3.505-4.117-10.184-10.917-10.155s-7.754 3.131-7.754 3.131-.188-6.512 8.366-7.161c8.555-.649 12.021 8.927 12.338 11.406 1.633 12.779.363 21.426.339 20.798-.372-10.103-1.11-13.813-2.372-18.019z"/>
  <path fill="#81534E" d="M10.75 275.353c-.804.638-1.326 1.49-1.663 2.441.982 12.249 7.876 26.941 9.889 31.009l.363-.552s2.086-10.704 2.592-12c1.257-3.219 5.18-1.168 5.187 1.806 0 0 1.341-11.881-.725-17.315-2.067-5.435-12.017-8.265-15.643-5.389z"/>
  <path fill="#594244" d="M71.333 434.667c-.803.547-7.833 3.505-7.333 15.169 0 0 1.974-3.836 3.654-5.169 0 0-3.728 4 .309 21.5 0 0-.296-9.833 1.204-13.167 0 0 0 19.5 11.5 35.333 0 0-4.167-11.5-3.833-16.167 0 0 6.167 20.833 26.833 38 0 0-6-7.5-9.667-17.166 0 0 22.167 23 29.333 35.166 0 0-4.833-12-7.167-15.833 0 0 10 12.667 10.667 20.667 0 0 .833-10.447 0-14.473 0 0 2.667 7.14 2.5 9.973 0 0 7.833-7.167 14.167-21.833 0 0-3.167 13-7 17.833 0 0 7.833-7.5 15.667-20.5 0 0-.743 7.167-2.288 9.833 0 0 11.955-6.333 18.788-19.167 0 0-1.167 6.167-2.667 8.667 0 0 8.667-5.833 14.5-20.167 0 0-1.333 7.5-3.5 11.667.504-1.07 9.667-11.333 13.667-23.167 0 0-1.167 7.333-2.167 9.833 0 0 9.333-11.333 10.833-21.667 0 0 1.167 2.833.833 4.667 0 0 3.167-8.5 2.667-16.917 0 0 1.833 2.144 1.667 4.614 0 0 .875-10.572-4-17.53 0 0-2.292-2.923-4.625-3.319 0 0 .625 5.256-.042 7.288 0 0-1.833-4.469-3-4.969.656.581-.5 7.333-1.333 8.833 0 0-1.333-4.833-2.167-6 0 0-1 8.5-2 9.833 0 0-1-6.563-1.667-7.698 0 0-1.038 9.036-1.853 11.2 0 0-.295-7.167-1.647-8.502 0 0-1.5 13-1.667 14.333.167-1.333-1.333-9.333-1.5-10.833l-1.199 12.667s-.991-7.333-2.229-9.917c0 0-.739 12.083-1.739 14.583 0 0-.875-11.162-1.521-12.331 0 0-2.312 11.331-2.479 12.998 0 0 .333-7.773-1.833-10.636l-.833 14.136s-.667-9.278-2.5-12.056c0 0-.333 12.556-.833 13.889 0 0-1.5-9.167-2.833-11.333 0 0-.667 12.833-1.833 15.167 0 0-.663-11.243-1.656-13.167 0 0-4.652 14.167-5.248 17.667 0 0-.417-11.751-2.384-14.333 0 0-.045 14.667-1.212 16.833.304-.938-4.716-10.835-4.833-15.333 0 0-3.667 10.333-3.25 13.167-.015-.994-1.86-12.746-3.25-14 0 0 0 9.5-1 12.167 0 0-3.408-8.185-2.99-12.833 0 0-3.01 9-2.51 15 0 0-2.697-6.178-3.333-12.5 0 0-.667 8.167-.333 11.167 0 0-3.002-7.743-4.5-11.167 0 0-.5 7.833.167 10.333 0 0-3.536-7.391-4.375-12.333 0 0-1.208 8.833 0 14.333 0 0-4.374-8.565-4.721-14.333 0 0-1.57 6.333-1.237 8.833 0 0-4.217-5.583-3.65-12.167 0 0-1.517 6.833-.85 9.333 0 0-2.833-5.667-2.833-9.667 0 0-2.333 5.5-2.167 8.5 0 0-3.992-5.324-4.5-11 0 0-1.833 4.5-1.167 6.333 0 0-3.833-6.667-4.167-9.5 0 0-1 3.833-.667 5 0 0-3.15-6.039-2.667-9.167 0 0-1.436 5.833-1.635 7.167 0 0-2.082-7.555-1.865-10.333 0 0-3 4.561-2.333 6.197 0 0-2.462-8.507-1.814-12.435 0 0-2.853 5.405-2.519 7.822.087-1.494-2.576-6.456-1-11.083 0 0-4.667 3.833-4.5 6.667 0 0-1.108-6.961 1.5-9.833-.001-.001-1.635-.506-4.335 1.333z"/>
  <path fill="#916D6C" d="M91.75 476.75s-1.25-3.75 0-7c0 0 .75 5.25 1.75 7 0 0-.522-4.25 1.239-7.75 0 0 .886 8.125 3.636 12.125 0 0-2-6.75-.625-12.125 0 0 2.75 11.625 6.375 16.125 0 0-2.375-5.625-2.25-10.25 0 0 3.375 9.625 7.875 14.25 0 0-2.625-5.25-2.875-10.063 0 0 5.125 12.313 7.875 13.938 0-1-2.75-5.5-2.875-11.375 0 0 3.667 10.5 6.583 13.5-.646-.769-2.708-4.375-2.458-9.625 0 0 1.625 6.875 5 10.75 0 0 1.75-7.375 0-14.5 0 0 4.875 8.25 4.5 15.5 0 0 2.875-5.125 4.25-11 0 0 1.25 6.5 0 10.125 0 0 4.5-6 6.25-13.25 0 0 .578 5.5-1.648 9.875 0 0 6.898-5.25 9.023-11 0 0-1.763 7.5-4.756 11 0 0 7.388-5.375 11.26-11.375 0 0-1.799 6.25-4.339 8.875 0 0 8.782-5.375 11.934-12.75 0 0-3.973 9.875-5.598 11.375 0 0 7.625-6.25 9-9.125 0 0-2.75 8.125-8.25 12.5s-9.75 6.5-9.375 6.375 5.757-5.125 6.628-7.125c0 0-9.003 5.875-13.253 13 0 0 2.546-7.118 6.5-11.75 0 0-8.01 4.875-11.317 15.875 0 0-.433-5.875 3.317-11.875 0 0-6.073 2.711-8.125 16.125 0 0-1.125-7.875.25-13.25 0 0-2.614 4.281-2 16.625 0 0-4.125-6.125-5.875-17 0 0-.625 6.375.375 10.625 0 0-4.943-5.294-6.013-14.25 0 0 .127 5.286 1.07 8.956 0 0-3.746-4.819-5.057-11.83 0 0-.375 4.25.75 7 0 0-3.081-2.96-4.5-10.875 0 0-1.125 2.5-.375 5.625 0 0-2.875-3.25-4.875-9.75 0 0-.875 3.375.125 5.5 0 0-4.125-4-5-9.375 0 0-.875 2.625-.25 5.125-.001-.001-2.626-4.001-3.876-9.501z"/>
  <path fill="#3D2827" d="M9.216 279.121s2.784-4.207 8.534-2.789 9.691 5.847 9.572 13c0 0 2.034-16.088-9.052-17.063-9.303-.818-10.369 2.807-10.348 4.643.025 2.059 1.294 2.209 1.294 2.209zM22.75 298.75c.284-.452-3.431 15.333-3.299 16.75 0 0-1.285-5.917-1.201-6.167s1.667-6.083 4.5-10.583z"/>
  <path fill="#81534E" d="M232.25 267.652c-3.561-2.85-7.491-6.131-12.845-8.67-3.103-1.472-8.623-2.928-13.155-3.482-9.188-1.124-19.725-.228-28.983 4.293l.028-.02s-7.408 3.22-7.358 2.383c.05-.837 3.563-2.907 3.563-2.907-4.938 1.375-8.938 4.5-8.938 4.5.506-1.238 2.011-2.46 2.011-2.46-4.017 1.657-5.853 3.445-6.041 5.091l-.004.007c-.278 1.266.346 5.29 1.222 5.883 0 0 1.077-2.988 2.351-3.504s-.606 3.812-.115 5.486 5.347-1.293 5.347-1.293.458-3.493 3.159-5.986c-1.395 1.606-2.06 3.192-1.666 4.646 0 0 13.736-7.931 24.6-9.44 5.985-.831 17.284 1.497 22.741 4.347 5.457 2.85 8.832 4.926 8.832 4.926s10.375 6.6 23.375 4.449c0-.001-10.574-3.393-18.124-8.249z"/>
  <path fill="#D46160" d="M167.953 385.5c-2.218-.368-11.828-3.979-11.828-3.979 3.5.021 7.875.979 7.875.979s-8.751-4.125-14.122-2.125-12.128 4.499-17.378 4.632c-1.163.029-2.403-.114-3.676-.349 1.184.755 2.079 1.266 2.079 1.266-4.828-.169-10.684-3.509-10.76-3.552-1.576-.419-3.076-.752-4.417-.851-4.773-.354-9.351 1.979-9.351 1.979l2.475-1.573c-5.316 2.26-20.651 5.283-20.651 5.283 7.837.39 20.651-1.613 20.651-1.613s-4.009 1.157-6.1 1.536c-.439.079 2.352.46 9.305-.869 5.468-1.045 13.57 3.736 20.445 3.784 6.875.048 16.25-4.423 19.763-4.423s8.887.776 14.311 1.508c6.426.867 10.484-.054 10.484-.054-.692.203-9.105-1.579-9.105-1.579z"/>
  <path fill="#3C2829" d="M226 268.768c-2.834-1.793-7.438-5.659-12.625-7.409-5.597-1.888-9.52-1.931-15.708-1.306s-11.73 1.306-18.973 4.387c0 0 .681-1.813 11.707-6.75 0 0-11.402 2.301-19.089 10.276-1.857 2.802.355 5.034.355 5.034s-.34-.582 1.517-2.078c1.857-1.497 10.861-5.666 16.229-6.95 5.368-1.284 8.32-1.64 6.619-1.393a8.12 8.12 0 1 0 15.635 3.07c0-.553-.072-1.088-.18-1.61.414.107 6.655 2.469 7.504 2.92s8.009 4.494 8.009 4.494 4.479 2.421 7.308 3.189c0 0-5.474-4.081-8.308-5.874z"/>
  <path fill="#3D2827" d="M245.094 246.887c-.189-.157-11.927-13.304-15.691-15.057 0 0 1.989 2.753 2.655 3.67 0 0-5.474-4.583-8.391-5.917 0 0 4.917 4.417 6.417 7 1.499 2.584 15.01 10.304 15.01 10.304z"/>
  <path fill="#D46160" d="M93.151 392.875s6.224 5.75 17.099 10.625L104 402s13.167 6 28.375 6.167c4.895.054 8.542-.117 19.292-3.35s12.98-5.317 12.98-5.317l-5.397 2.083s7.751-3.331 17-10.58c0 0-13.333 21.247-26.917 24.663-.417 0-6.583 1.083-12.333 1.333l-.833-3.333-.446 3.334h-1.262l-.191-2.417s-.281 2.25-.527 2.333c-.245.084-1.491.084-3.158.084s-8.089 1.429-13.667.037c-8.833-2.204-16.113-12.954-23.765-24.162z"/>
  <path fill="#DB6E6E" d="M139.5 409.281c.514-.075 13.667-2.027 19.417-5.18 5.75-3.153 6-.987 4.083.68s-8.495 6.345-20.75 7c-4.094.219-5.469-.172-5.702-.902-.325-1.016 1.276-1.353 2.952-1.598z"/>
  <path fill="#594244" d="M92.25 93.25c1.89.232-6.75 2.25-9.75 7.75 0 0 4.75-2.777 9.75-3.264 0 0-8.947 4.264-10.848 20.514 0 0 3.698-8.573 11.648-13.786 0 0-6.406 7.036-3.853 30.286 0 0 1.653-8.75 3.853-12.75 0 0-3.3 13.25 3.2 31.75 0 0-.75-10 1.25-21.25 0 0 1.106 21.455 9.75 42 0 0-2.628-9.75-2.439-19.5 0 0 4.669 19.904 20.439 45.5 0 0 .25-28.5 15.75-50.5 0 0-5.5 10.5-7.333 17.833 0 0 4.333-13.833 17.667-25.5 0 0-5.625 7.333-6.667 11 .285-.822 9.5-13 23.667-22.167C182.5 122 195.25 117.875 209.25 116.75c0 0-12.625 2.375-22.125 7.125 0 0 24.75-8.875 38.5-5 0 0-12.25-3.875-26.375-5.875 0 0 21.417.333 34.583 6.167 0 0-15-8.333-30.167-12.333 0 0 8 .833 18 4.833 0 0-12.833-6.333-17.667-8.333 0 0 12.167.667 16.667 2.5.772.1-16.05-7.203-24.5-10 0 0 24.333 4.333 32.833 7.667-.995-.369-19-8.833-27-11.333 0 0 10.167 1.333 17 3.833 0 0-7.5-4.333-11.833-5.667 0 0 18 4 24.833 6.833 0 0-17.667-8.667-25.833-10.833 0 0 8.333 1.333 13 2.667 0 0-10.833-4.833-12.5-5.333l9.667 2.167-9.667-4.167s14 2.833 19 4.5l-18.833-7.5 20.597 4.607L183.5 68.25s25.417 4.833 49.167 13.583c0 0-17-8.5-25.5-10.833 0 0 12.167 2.833 18 5 0 0-8.707-5.574-13.873-7.241 0 0 10.552 1.724 28.707 7.074 0 0-10-7-18.833-10l11.333 2.833-13.334-6.166s15.167 2.667 18.167 3.5c0 0-21.5-15.167-34.333-19.333S182.333 41 182.333 41s11.5-1.333 17.333-.833c0 0-13.667-3-19.667-3.5 0 0 3.833-2.333 9-2.5-.829.048-8.666-1.167-14.499.833 0 0 2.333-3.167 5.5-5.833 0 0-7.667 2.667-10.333 5.667 0 0 2.667-6.667 2.167-6.5s-4.5 6-4.5 6.333-1.167-7.5-11-14.833c0 0 5.667 9.833 6.5 15-.176-.869-3.333-6.667-6.667-9.5 0 0 3.167 7.5 3.167 10.167-.075-.846-10.667-11.667-25-16.667 0 0 12.5 10.5 15 13.167 0 0-9.833-6.5-16.667-7.167-6.833-.667-21-2.5-24.5-4 0 0 6.5 6.333 24 10.333 0 0-9.667-.667-15.667-2.167 0 0 5.833 5 17.333 7.167 0 0-12.167-.333-18-1.333 0 0 8.333 3.5 13.5 4.167 0 0-7.5.5-10-.167 0 0 5.333 2.167 8.5 2.833 0 0-13.333-.167-34.333 7 0 0 7.5-1.167 10.667-1.833 0 0-10.333 2.833-19 7.167 0 0 13-3.167 17-3.667 0 0-12.5 3.167-24.833 10.333 0 0 12-4.333 16.667-5.5 0 0-12.5 6.333-16.667 9.5 0 0 10.167-3.833 12.833-4.833 0 0-8.667 5.333-14.167 11.167 0 0 10-7 17.833-9.833 0 0-8.667 5.333-10.333 7 0 0 7.5-2 13.167-2 0 0-11.667 5.5-13.667 8.333 0 0 4.333-1.667 8.833-2.833 0 0-8.667 4.833-12.833 9.667 0 0 6.667-3.333 10.5-4.167 0 0-9 5.667-12 10.5 0 0 8-3.5 11.833-5.333 0 0-7.833 4.667-11.833 8.917 0 0 5-2.417 8.667-3.083 0 0-5.833 3-9.167 8.167 0-.003 10.5-3.669 15.25-3.086zM248.375 158.75c-.246.751 1.375-10.625-.875-19.5 0 0 2.25 3.25 2.875 6.25 0 0 .625-7.375-2.875-16.75 0 0 5 8.5 5.5 11 0 0 .375-3.375 0-6.125 0 0 1.75 4.5 2.25 6.625 0 0 1.125-5.5 0-10.5 0 0 2.833 6.333 3.25 11.25 0 0 .583-2.75.417-6 0 0 1.25 3.583 1.5 6.833 0 0 1.167-4.25.417-10 0 0 4.083 4.167 4.833 6.917 0 0-.583-6-1.75-10 0 0 3.25 4.083 3.833 6.167-.132-.393-1.083-5.833 0-10.25 0 0 .25 4.917 1.25 7.833 0 0-.167-3.833.917-6.167 0 0 2.267 5.927 3.834 5.331 1.749-.665-1.584-20.165-1.584-20.165s4.262 6.703 5.722 11.94c0 0 .611-4.607.528-10.44 0 0 4.083 10.25 4 13.667 0 0-.417-6.917-.25-9.167 0 0 2.583 7.417 2.667 10.25 0 0-.333-5.5-.5-9.417 0 0 2.616 3.436 3.333 6.583 0 0-2.417-10.5-3.333-15.25 0 0 3.46 7.598 5.167 14.555 0 0 .583-4.555.583-7.472 0 0 1.333 8.5 1.333 11.167 0 0 1-3.833.917-8.917 0 0 1.667 5.25 1.75 10.083 0 0 .171-6.333.333-9.667 0 0 1.917 4.5 3.167 8.5 0 0-.996-6.322-2.083-15.083 0 0 3.386 6.111 4.25 8.917-.012-.588-.833-8.25-3.417-17.667 0 0 7.091 10.392 10 31.083 0 0 .417-4.583-.5-9.333 0 0 3.917 10.917 1.833 26 0 0 0-8.167-.917-13.167 0 0 .917 10.333-1.667 28.25 0 0 .333-10.25-.833-14.667 0 0 0 5.75-.75 10.25 0 0-.083-9-.833-11.417 0 0-.333 6.833-.667 8.667 0 0-.25-7.083-1-9.75 0 0-.25 5-.5 6.417l-.917-5.583s-2.167 5.417-2.5 12.75c0 0-.917-3.5-.833-8.25 0 0-1.075 2.833-1.246 5.417-.338-.75-.671-4.5-.338-6.583 0 0-1.599 1.583-1.674 3.083 0 0-1.742-3.583-1.409-6.667 0 0-1.583 3.5-1.25 8.333-.022-.424-.75-5.083-1.667-6.667-.25.5.333 6.417-1.083 10.333 0 0 .083-3.833-.917-6 0 0 .083 4.167-1.333 9.583 0 0 .417-6.917-1.167-11.333 0 0 .167 5.083-.5 7.25 0 0-.75-6.5-1.583-8.583l-.333 6.667-1.417-4.917s-.167 4.583-.833 7.75c.089-.451-.167-3.417-.5-5.083 0 0-2.083 5.667-2 8.333.011-.563-1.083-3.167-.833-6.167-.417.167-1.25 2.583-1.083 3.667-.009-.578-.917-1.833-.75-6.167 0 0-1.667 2.083-1.583 3.833.023-.487-.583-2.333-.833-5.333 0 0-1.833 3-1.917 6.083 0 0-.667-1.833-.083-7.333 0 0-1.833 3.25-1.75 5.083 0 0-.333-2-.417-3.667 0 0-2.5 3.167-2.5 6.75 0 0-.583-3-.5-4.917 0 0-.417 6-2.417 9.583.206-.396 1.167-4.083.75-7 0 0-.583 2.417-1.25 4 0 0 .25-3.833-.083-5.583 0 0-.417 1.75-.667 2.833 0 0-.25-2.917-1-4.333 0 0-.333 3.25-1.917 5.917-.083-.833.583-3.333-.083-7.583 0 0-1.083 6.333-2.917 9.583.294-.561 1-5.083.583-7.417 0 0-.917 6.495-4 11.917 0 0 1.333-4.833 1.333-8.583 0 0-2 6.922-4.083 10.75.207-.394 2.083-8.5 1.917-16.5 0 0-.833 5.667-1.417 8.083.119-.522.75-10.25.75-12.75 0 .004-1.167 5.587-1.875 7.754z"/>
  <path fill="#3D2827" d="M227.713 103.031s-38.797-11.781-60.492-12.13c0 0 28.862 3.765 63.529 18.765l-3.037-6.635z"/>
  <path fill="#987473" d="M121.5 178c-.076 1.115 2.831-24.583 20.498-39.875 0 0-6.165 8.476-11.165 21.542.335-.758 13.674-28.697 48.167-40.333 0 0-12 1.667-29.5 13.167 0 0 10.333-8.5 20-13.167 0 0-9 3.333-16.5 7.5.802-.439 5.667-5 10.5-7.5 0 0-7.667 3-13.833 6.667 0 0 5.5-6.167 15.667-10.833 0 0-10.5 3-18.667 8.167 0 0 1.833-4 6.667-7.167 0 0-8.5 2.5-16.667 9.5 0 0 4.667-6 8.5-8.667 0 0-12 5.167-21.833 22.667 0 0 5.167-5.833 8.667-8.833 0 0-5.667 6.5-11.167 19.833 0 0 7-10.5 12.5-16.833 0 0-7.833 10-12.5 27.667 0 0 7.5-15.833 16.667-24.833-.001-.002-14.379 17.374-16.001 41.331zM123.333 115.167s8-6 24.5-8c0 0-5.167 0-11.5 1 0 0 8.833-2.667 16-2.833 0 0-4.667-1.5-10.167-1.25 0 0 7.833-2.917 19.5-2.75 0 0-7.667-1.833-16.167-2 0 0 4.5-1.5 9.833-1.833 0 0-5.5-1.5-12.833-1.167 0 0 4.833-1.167 8.5-1.5-.782.082-5.667-.5-12.333 0 0 0 9.633-2.742 18.483-2.371-.817-.129-13.15-1.796-20.15-1.129 0 0 5.667-1.833 9.167-2.167 0 0-6.833-1.333-14.833 0 0 0 4.167-1.833 7.667-2.5-.913.198-10-.508-18.167 5.246 0 0 3.333-1.079 6.5-1.913-.819.221-10.5 4-17 12.833 0 0 7.667-6.167 14.333-8.833 0 0-12.333 6.833-15.833 19.333 0 0 6.539-10.25 16.667-15.167 0 0-10.667 7.333-15 22.333 0 0 4.339-11.19 17.5-18.5-.895.514-5 4.5-9.5 13.167 0 0 3.167-6.5 13.5-9.5 0 0-5 3.333-6.667 5.333 0 0 4.167-1.667 6.667-2.5 0 .001-5 3.334-8.667 6.668zM123.021 132.458s2-5.333 4.833-9.333c0 0-2.167.833-4.833 3.5 0 0 1.375-4.25 5.542-8.25 0 0-2.938 1.75-4.708 2.75 0 0 4.833-6.688 10.146-8.625l-3.188 3.563s2.871-2.438 10.873-5.104c-.994.344-7.449 6.635-7.449 6.635s6.785-4.635 14.451-6.635c0-.001-17.834 9.166-25.667 21.499zM125.667 85c3.167-1.167 12.167-3.833 26.5-3 0 0-9-2.167-16.917-2.167 0 0 7.75-1.5 12.75-1.167 0 0-6.958-1.5-12.146-1.5 0 0 4.813-1.333 17.979 0 0 0-7.5-2.333-12.833-2.5 0 0 4.875-1.167 7.688-1.167 0 0-4.688-1.167-8.021-1.167 0 0 4-3 12.5-3.5 0 0-5.833-1.333-14.333-1.5 0 0 6.042-1.5 9.854-2 0 0-4.354-1.833-11.521-1 0 0 8.51-3.167 20.005-3 0 0-11.297-2.667-21.318-1.667 0 0 3.479-2.167 8.146-2.5-.809.078-3.833-1.167-12.167 0-8.333 1.167-17.333 7.333-16.833 7s10-2.667 13.167-3.667c0 0-7.333 1.998-17 10.332 0 0 13.833-7.166 19.333-8.332 0 0-9.5 3.333-22.833 16.333 0 0 14-9.658 22.833-12.167 0 0-16.333 8.833-23.5 20 0 0 13.285-11.429 26.167-16.167 0 0-9.5 4.833-14.667 11.833 0 0 7.172-4.5 13.586-6.667 0 0-6.211 3.833-9.065 6.833 0 0 5.398-1.667 9.065-2.333L125.667 85zM156 53.875s-17.25-2.75-25.25-1c0 0 7.25-2.625 11.5-2.625 0 0-8-1.625-18.375 0 0 0 9.5-2.25 13.375-2.25 0 0-6.375-1.875-13.375-1.375 0 0 8.75-2 15.25-1.25 0 0-7.635-4.356-11.125-4.5 0 0 8.75.375 13 1.75 0 0-7.375-3.875-10.375-4.375 0 0 9.625.375 13.75 2.625 0 0-4.5-5.25-11.625-7s-8.875-2.375-8.875-2.375 12.25.5 17.75 2.875c0 0-5.875-3.875-10.875-5.125s-11.625-4.125-11.625-4.125 18.875 0 28.73 9.321c0 0 4.02 3.179 6.27 4.179 0 0-.875-5.875-9-12.625 0 0 8.625 3.75 13.5 13 0 0-.875-3.5-.625-3.125s4.75 3.875 5.25 8.625 3.971 7.125 3.971 7.125-3.288-.5-6.567-6.875c0 0-.971 2.75 0 4.875 0 0-2.104-6.125-3.504-8.125 0 0-.932 4.125.022 6.125-.231-.676-4.547-6.75-8.484-8.625 0 0 3.688 5.125 4.438 7.375 0 0-4.625-2.5-8.375-3.125 0 0 3.5 2.75 4.625 3.875 0 0-4.5-1-6.75-.25 0 0 3.375 1.375 5.375 2.125l-4.25-.125 12.249 5z"/>
  <path fill="#3D2827" d="M44.528 494.066S38.5 496.667 35 509.75c0 0-2.209-5.667 4.187-15.167.396.084 5.341-.517 5.341-.517zM293.461 572.036s9.873-10.119 17.456-24.286c0 0-.974 3.174-3.917 9.625 0 0 3.913-5.35 10.333-16.375 0 0-3.292 7.427-6.583 13.5-3.429 6.327-11.375 12.163-17.289 17.536zM138.438 619.362c2.624.024-8.313 1.138-22.788-2.102 0 0 2.913.18 6.663.46-.375-.028-4.125-.283-12.375-2.845 0 0 8.375 1.839 12.563 2.232s15.937 2.255 15.937 2.255z"/>
  <path fill="#D46160" d="M309.167 525s8.237 1.948 11.333 6.5l-8.667 16.167 1.833-6.667s-11.856 20.833-20.345 28.833-33.655 31.299-84.155 49.733-72.333 13.934-72.333 13.934 21.127-2.333 35.647-6.667c-.904.263-23.647 5.333-46.147 1.5 0 0 19.167.792 46.792-5.958-.901.3-26.625 1.625-26.625 1.625s58.061-6.462 112-40.667c0 0-9.667 5.167-20.833 10.333 0 0 39.5-28.167 52.333-41.833l-13.5 15-7.667 7.333c0 .001 26.667-18.666 40.334-49.166z"/>
  <path fill="#3D2827" d="M21.1 334.4s.1 9.85 1.042 12.766c0 0-2.797-3.917-2.802-9.917-.007-5.999 1.76-2.849 1.76-2.849z"/>
  <path fill="#3D2827" d="M28.01 333.574s-.431 26.176-3.26 30.801-6.436 1.583-9.093-1.021.488 6.143 12.353 8.957c0 0 .99-1.561.74-5.561s-.74-33.176-.74-33.176z"/>
  <path fill="#D68876" d="M130.487 421.767c6.832-.374 13.78 3.992 13.02 5.18s-9.028-.428-13.02-.523c-3.992-.095-11.309 1.235-12.165.523-.855-.713 5.227-4.8 12.165-5.18z"/>
  <path fill="#3D2827" d="M287.038 279s-3.331 21.825-3.362 21.986c-.031.161 5.433-16.819 5.337-16.986s.898-6.967.898-6.967L287.038 279zM314.064 267.883s-4.314-6.471-8.314-6.594-9.198 3.906-12.391 10.475c.057-.348 1.805-8.274 2.056-10.478 0 0 7.085-2.87 10.335-2.203s7.128 4.85 8.314 8.8z"/>
  <path fill="#3A2A26" d="M117.041 362.895s-4.27-5.808-6.02-8.853l-.382.017c-.92-.101-2.826-.224-5.306-.675-5.286-.962-11.833-3.905-11.833-11.134 0-9.268 10.771-18.226 11.476-19.226 0 0-14.809 8.143-14.809 19.684 0 12.274 12.246 12.95 18.739 12.57 1.092 1.403 3.485 4.071 8.135 7.617z"/>
  <path fill="#281C1C" d="M295.928 260.999s-29.651-10.413-29.744-10.499c-1.088-1-13.051-3-41.328-4s-47.853 1-64.167 5-21.752 5-27.189 5c-5 0-10-1-25-5s-33-6-59-5-37 3-38 4-1 9 0 11 3 2 4 4 0 15 2 26 4 20 8 24 25 6 43 6 29-2 37-7 11-11 14-24 7-19 14-19c7.613 0 11.963 6 15.226 19s6.525 19 15.226 24 20.664 7 40.24 7 42.416-2 46.766-6c4.35-4 6.525-13 8.701-24s1.587-22.545 2.674-24.545c1.047-1.924 3.254-2.203 4.376-3.986l27.391 7.385c0-.001 4.817-5.344 1.828-9.355zM115.5 280.5c-.744 5.954-3 17-6 22s-7.145 9.029-17 11c-10 2-16 2-32 2s-31-2-33-6-5-17-6-26-2-22 2-25 16-6 42-6 45 3 49 10c2.219 3.883 2 10 1 18zm139.809 3c-1.088 9-4.35 22-6.525 26s-18.489 6-35.89 6-23.927 0-34.802-2c-10.718-1.971-15.226-6-18.489-11s-5.716-16.046-6.525-22c-1.088-8-1.326-14.117 1.088-18 4.35-7 25.014-10 53.291-10s41.328 3 45.678 6c4.349 3 3.261 16 2.174 25z"/>
  <path fill="#E8DEDE" d="M198.595 270.03l-4.751 2.478s-2.496-3.115-1.461-7.486c0 0 3.525.135 5.178.323a.227.227 0 0 1 .198.218l.084 1.532s-2.291.843-2.467 1.049l.101.513 2.542-.353s.433.953.676 1.416a.228.228 0 0 1-.1.31zM211.143 265.65c.129-.003 2.335.008 2.623.584s-.662 2.83-.913 2.806c-.251-.024-2.582-.767-2.582-.767l.872-2.623z"/>
</svg>
