<svg xmlns="http://www.w3.org/2000/svg" viewBox="0 0 256 256">
  <path fill="#5C5C5E"
    d="M128 7.385965c66.666667 0 120.614035 53.9473683 120.614035 120.614035 0 66.666667-53.947368 120.614035-120.614035 120.614035C61.3333333 248.614035 7.385965 194.666667 7.385965 128 7.385965 61.3333333 61.3333332 7.385965 128 7.385965z" />
  <path fill="#FFF"
    d="M192.035088 181.070175c-4.385965 13.596492-10.964913 23.684211-20.175439 31.140351-9.210526 7.456141-21.491228 11.403509-36.842105 12.719299l-3.070176-20.175439c10.08772-1.31579 17.54386-3.508772 22.368421-7.017544 1.754386-1.315789 5.263158-5.263158 5.263158-5.263158L123.175439 75.8070175h30.263157l21.052632 87.2807015 22.368421-87.2807015h29.385965L192.035088 181.070175zM86.3333333 71.8596491c7.0175439 0 13.5964913.877193 18.8596487 3.0701755 5.701755 2.1929824 10.964913 5.2631579 16.228071 9.6491228l-12.280702 16.6666666c-3.508772-2.6315789-7.017544-4.3859649-10.0877194-5.7017544-3.0701755-1.3157894-7.0175439-1.7543859-10.5263158-1.7543859-14.9122807 0-22.3684211 11.4035083-22.3684211 34.6491223 0 11.842106 1.754386 20.175439 5.7017544 25 3.9473684 5.263158 9.2105263 7.456141 16.6666667 7.456141 3.5087719 0 7.0175438-.438597 10.0877193-1.754386 3.0701759-1.31579 6.5789469-3.070176 10.9649119-5.701755l12.280702 17.54386c-10.087719 8.333333-21.491228 12.280702-34.6491227 12.280702-10.5263158 0-19.2982456-2.192983-27.1929824-6.578947-7.4561404-4.385965-13.5964913-10.964913-17.5438597-19.298246-3.9473684-8.333333-6.1403509-17.982456-6.1403509-29.385965 0-10.964912 2.1929825-21.052632 6.1403509-29.3859649 3.9473684-8.7719298 10.0877193-15.3508772 17.5438597-20.1754386 7.4561403-3.9473684 16.2280701-6.5789474 26.3157894-6.5789474z" />
</svg>