<svg xmlns="http://www.w3.org/2000/svg" viewBox="0 0 125 42">
  <path fill="#ff3b30"
    d="M24 37.1h-8.7l-7-10.3h-.2v10.3H1V4.6h7.1v19.8h.1l6.8-8.7h8.6l-8.3 9.7L24 37.1zM47.1 26.7V28.4H31.5c.1.6.2 1.1.5 1.6s.7.9 1.2 1.3 1 .6 1.6.8c.6.2 1.2.3 1.8.3 1.1 0 2.1-.2 2.8-.6.8-.4 1.4-1 1.9-1.6l4.9 3.1c-1 1.5-2.3 2.6-4 3.4-1.6.8-3.6 1.2-5.7 1.2-1.6 0-3.1-.3-4.6-.8-1.4-.5-2.7-1.2-3.8-2.2-1.1-1-1.9-2.1-2.5-3.5-.6-1.4-.9-3-.9-4.8 0-1.7.3-3.3.9-4.8s1.4-2.6 2.5-3.6c1-1 2.3-1.8 3.7-2.3 1.4-.5 2.9-.8 4.6-.8 1.6 0 3 .3 4.3.8 1.3.5 2.5 1.3 3.4 2.3.9 1 1.7 2.2 2.2 3.7.5 1.3.8 2.9.8 4.8zM40.6 24c0-1.1-.4-2.1-1.1-2.9-.7-.8-1.8-1.2-3.2-1.2-.7 0-1.3.1-1.9.3-.6.2-1.1.5-1.5.9-.4.4-.8.8-1 1.3-.3.5-.4 1-.4 1.6h9.1zM64.7 37.1h-7.6l-8.4-21.4h7.8L61 29.6h.1l4.5-13.9h7.5l-8.4 21.4zM83.5 8.9c0 .5-.1 1.1-.3 1.5-.2.5-.5.9-.9 1.2-.4.3-.8.6-1.3.8-.5.2-1 .3-1.6.3-1.1 0-2.1-.4-2.9-1.1-.8-.8-1.2-1.7-1.2-2.7 0-.5.1-1 .3-1.5.2-.5.5-.9.9-1.2.4-.3.8-.6 1.3-.8.5-.2 1-.3 1.6-.3.6-.1 1.1 0 1.6.2s.9.5 1.3.8c.4.3.6.8.9 1.2.2.5.3 1 .3 1.6zm-7.6 28.2V15.7H83v21.4h-7.1zM102.6 37.1V25.4c0-.6-.1-1.2-.2-1.7s-.3-1-.5-1.4c-.2-.4-.6-.7-1-1-.4-.2-.9-.4-1.6-.4-.6 0-1.2.1-1.7.4-.5.2-.9.6-1.2 1s-.6.9-.7 1.5c-.2.6-.2 1.1-.2 1.7v11.6h-7.1V15.7h6.8v3h.1c.3-.5.6-.9 1-1.4.4-.4.9-.8 1.5-1.1.6-.3 1.2-.6 1.8-.8.7-.2 1.4-.3 2.1-.3 1.4 0 2.7.3 3.7.8s1.8 1.2 2.4 2c.6.8 1.1 1.8 1.3 2.8s.4 2.1.4 3.2v13.2h-6.9zM123.1 33.3c0 1.2-.4 2.2-1.3 3-.8.8-1.9 1.2-3 1.2-.6 0-1.2-.1-1.7-.3-.5-.2-1-.5-1.4-.9-.4-.4-.7-.8-.9-1.3-.2-.5-.3-1.1-.3-1.7 0-.6.1-1.1.3-1.6.2-.5.5-1 .9-1.4.4-.4.9-.7 1.4-.9.5-.2 1.1-.3 1.7-.3 1.2 0 2.2.4 3 1.2s1.3 1.8 1.3 3z" />
</svg>