<svg xmlns="http://www.w3.org/2000/svg" viewBox="0 0 116 26">
  <defs>
    <linearGradient id="aa" x1="0" y1="0.63112" y2="0.63112">
      <stop offset="0" stop-color="#615142"/>
      <stop offset="1" stop-color="#3E3B39"/>
    </linearGradient>
    <linearGradient id="bb" x1="0.01649" x2="0.98266" y1="0.55156" y2="0.55156">
      <stop offset="0" stop-color="#F9A01B"/>
      <stop offset="1" stop-color="#EE283B"/>
    </linearGradient>
  </defs>
  <g fill="none" fill-rule="evenodd">
    <path fill="url(#aa)" d="M15.953 6.034c-1.141 0-2.026.284-2.796.826-.657.398-1.228.967-1.713 1.735h-.057c-.6-1.537-2.026-2.561-3.852-2.561-2.341 0-3.597 1.28-4.282 2.362h-.086l-.142-2.05H0c.086 1.197.114 2.534.114 4.128v9.734H3.54v-8.197c0-.398.057-.797.2-1.138.313-.969 1.198-1.993 2.511-1.993 1.627 0 2.397 1.367 2.397 3.302v8.026h3.425v-8.31c0-.4.086-.826.172-1.168.37-.996 1.255-1.85 2.454-1.85 1.684 0 2.483 1.367 2.483 3.671v7.657h3.424V12.04c0-4.44-2.34-6.005-4.652-6.005zM47.618 0h-3.51v7.856h-.057c-.628-1.025-1.998-1.822-3.91-1.822-2.87 0-5.42 2.045-6.062 5.566-.35-2.744-1.98-5.566-5.918-5.566-4.452 0-6.792 3.614-6.792 7.457 0 4.24 2.654 7.001 7.163 7.001 1.998 0 3.653-.37 4.852-.853l-.514-2.42c-1.056.399-2.226.626-3.853.626-2.226 0-4.195-1.081-4.28-3.586h9.217c.317 3.803 2.81 6.262 5.901 6.262 2.027 0 3.71-.968 4.538-2.505h.057l.143 2.192h3.14a70.629 70.629 0 01-.115-3.9V0zm-3.51 14.202a3.9 3.9 0 01-.114 1.025c-.343 1.509-1.598 2.476-3.025 2.476-2.227 0-3.482-1.85-3.482-4.383 0-2.59 1.255-4.583 3.51-4.583 1.598 0 2.711 1.11 3.025 2.477.057.284.086.626.086.91v2.078zm-19.371-2.39c.142-1.423 1.055-3.387 3.225-3.387 2.34 0 2.91 2.106 2.882 3.387h-6.107zM50.967.569c-1.171 0-1.97.826-1.97 1.907 0 1.053.77 1.879 1.94 1.879 1.228 0 1.999-.826 1.999-1.879-.03-1.081-.771-1.907-1.97-1.907zm-1.77 19.639h3.54V6.347h-3.54v13.86zm15.969-8.34c0-3.017-1.284-5.834-5.737-5.834-2.197 0-3.995.598-5.022 1.224l.685 2.276c.941-.597 2.368-1.024 3.739-1.024 2.454 0 2.824 1.509 2.824 2.42v.227c-5.136-.029-8.247 1.736-8.247 5.237 0 2.106 1.57 4.127 4.366 4.127 1.798 0 3.253-.769 4.11-1.85h.086l.228 1.537h3.168c-.143-.854-.2-2.078-.2-3.33v-5.01zm-3.425 3.473c0 .228-.028.512-.114.769-.314.995-1.341 1.906-2.74 1.906-1.113 0-1.998-.626-1.998-1.992 0-2.106 2.37-2.647 4.852-2.59v1.907z"/>
    <path fill="url(#bb)" d="M73.268 17.817a3.172 3.172 0 01-3.082-2.447 3.585 3.585 0 01-.115-.968v-2.135c0-.284.057-.598.143-.882.342-1.537 1.684-2.59 3.14-2.59 2.254 0 3.452 1.992 3.452 4.44 0 2.732-1.313 4.582-3.538 4.582m1.255-11.783c-2.112 0-3.739.882-4.766 2.448H69.7l-.171-2.135h-3.082c.057 1.309.114 2.789.114 4.611v14.885h3.51v-7.172h.057c.714 1.11 2.17 1.85 3.91 1.85 3.168 0 6.335-2.42 6.335-7.429 0-4.326-2.653-7.058-5.85-7.058zM92.3 11.87c0-3.018-1.284-5.835-5.736-5.835-2.198 0-3.995.598-5.022 1.224l.684 2.276c.942-.597 2.369-1.024 3.739-1.024 2.454 0 2.825 1.509 2.825 2.42v.227c-5.137-.029-8.248 1.736-8.248 5.237 0 2.106 1.57 4.127 4.367 4.127 1.798 0 3.253-.769 4.11-1.85h.085l.228 1.537H92.5c-.143-.854-.2-2.078-.2-3.33v-5.01zm-3.424 3.472c0 .228-.028.512-.114.769-.315.995-1.342 1.906-2.74 1.906-1.113 0-1.998-.626-1.998-1.992 0-2.106 2.369-2.647 4.852-2.59v1.907zm8.146-6.347h-.114l-.114-2.647H93.74c.086 1.252.114 2.59.114 4.468v9.393h3.51v-7.172c0-.4.057-.769.114-1.082.315-1.565 1.456-2.647 3.14-2.647.428 0 .741.057 1.027.114V6.12a3.706 3.706 0 00-.827-.085c-1.484 0-3.111.996-3.796 2.96zm12.378 3.017l5.138-5.664h-4.224l-3.368 4.469a23.08 23.08 0 00-1.113 1.622h-.057V0h-3.51v20.208h3.51v-4.725l1.198-1.394 3.996 6.119h4.31l-5.88-8.197z"/>
  </g>
</svg>
