<svg viewBox="0 0 96 30" xmlns="http://www.w3.org/2000/svg">
  <path
    d="M27.3085 3.92964C27.2955 3.15774 27.2808 2.28347 26.6642 1.49695C26.0491 0.710427 25.125 0.257041 24.1243 0.248915C24.0592 0.24404 23.9942 0.24729 23.9291 0.25054L23.9047 0.252165C23.9014 0.252165 23.8803 0.253791 23.877 0.253791C22.9838 0.302542 22.3134 0.751054 21.7863 1.17519L13.677 7.50148L5.25864 0.934683C4.57365 0.400044 3.71944 0.164413 2.85711 0.270041C1.99477 0.375669 1.22354 0.81118 0.688244 1.49532C0.270091 2.02996 0.0471846 2.65398 0.00650821 3.28449C0.00325411 3.32675 0.00162705 3.37062 0.00162705 3.41287C0.00162705 3.41937 0.00162705 3.42587 0.00162705 3.43237C0.00162705 3.45675 0 3.48112 0 3.5055L0.0455575 26.547C0.0455575 28.3394 1.50665 29.7987 3.30129 29.7987C5.09593 29.7987 6.55703 28.3394 6.55703 26.547V10.199L11.6709 14.1885C11.6871 14.2015 11.705 14.2145 11.7245 14.2275C11.7864 14.2747 11.8498 14.3185 11.9149 14.3608L11.9898 14.4079C12.0548 14.4469 12.1199 14.4843 12.1866 14.5184C12.2192 14.5347 12.2517 14.5509 12.2891 14.5688C12.3477 14.5964 12.4063 14.6224 12.4649 14.6452C12.5088 14.663 12.5527 14.6793 12.595 14.6939C12.6471 14.7118 12.6992 14.7297 12.7561 14.7459C12.8049 14.7605 12.8554 14.7735 12.9042 14.7865C12.9546 14.7995 13.005 14.8093 13.0539 14.819C13.1075 14.8288 13.1612 14.8385 13.2198 14.8483C13.267 14.8548 13.3142 14.8597 13.3679 14.8662C13.4216 14.871 13.4753 14.8759 13.5224 14.8775C13.6168 14.8824 13.7323 14.8824 13.8316 14.8775C13.8853 14.8759 13.939 14.871 13.9975 14.8645C14.0447 14.8597 14.0919 14.8548 14.144 14.8467C14.1977 14.8385 14.2514 14.8288 14.3002 14.819C14.3522 14.8093 14.4027 14.7979 14.4515 14.7865C14.5036 14.7735 14.554 14.7605 14.6061 14.7443C14.6581 14.728 14.7102 14.7118 14.7623 14.6939C14.8062 14.6793 14.8501 14.6614 14.8924 14.6452C14.9526 14.6208 15.0112 14.5948 15.073 14.5672C15.1072 14.5509 15.1397 14.5347 15.1723 14.5184C15.239 14.4843 15.3041 14.4469 15.3854 14.3982L15.444 14.3608C15.5074 14.3202 15.5693 14.2763 15.6344 14.2275C15.6506 14.2162 15.6718 14.2015 15.6848 14.1918L20.8019 10.199V26.5453C20.8019 28.3378 22.263 29.7971 24.0576 29.7971C25.8523 29.7971 27.3134 28.3378 27.3134 26.5453V3.95239C27.3101 3.94914 27.3085 3.93289 27.3085 3.92964ZM4.93323 26.5453C4.93323 27.444 4.20105 28.1769 3.29967 28.1769C2.3999 28.1769 1.6661 27.4456 1.6661 26.5437L1.62705 6.3542L4.93323 8.93314V26.5453ZM25.6863 26.5453C25.6863 27.444 24.9541 28.1769 24.0527 28.1769C23.1513 28.1769 22.4192 27.4456 22.4192 26.5453V8.53826C22.4192 8.22787 22.2418 7.94512 21.9636 7.81024C21.8513 7.75499 21.7293 7.72736 21.6073 7.72736C21.4299 7.72736 21.2526 7.78586 21.1078 7.89961L14.6972 12.9015C14.6858 12.9096 14.6728 12.9194 14.6646 12.9242C14.6305 12.9502 14.5963 12.9746 14.5605 12.9974L14.5247 13.0201C14.4922 13.0396 14.4596 13.0575 14.4255 13.0754L14.3734 13.1014C14.3441 13.1144 14.3164 13.1274 14.2855 13.1404C14.2644 13.1485 14.2432 13.1566 14.2221 13.1648C14.1944 13.1745 14.1684 13.1826 14.1407 13.1908C14.1163 13.1989 14.0919 13.2054 14.0643 13.2119C14.0415 13.2168 14.0187 13.2216 13.991 13.2281C13.9634 13.233 13.9357 13.2379 13.9146 13.2411C13.8869 13.2444 13.8609 13.2476 13.8397 13.2493C13.8121 13.2525 13.786 13.2541 13.7535 13.2558C13.6884 13.259 13.6526 13.259 13.5989 13.2558C13.5713 13.2541 13.5452 13.2525 13.5241 13.2509C13.4964 13.2476 13.4704 13.2444 13.4492 13.2428C13.4216 13.2395 13.3939 13.2346 13.363 13.2281C13.3402 13.2233 13.3158 13.2184 13.2914 13.2135C13.2654 13.207 13.2393 13.2005 13.2166 13.194C13.1889 13.1859 13.1629 13.1778 13.1336 13.1664C13.1124 13.1582 13.0913 13.1518 13.0685 13.142C13.0392 13.1306 13.0099 13.1176 12.9871 13.1062L12.9318 13.0786C12.8977 13.0607 12.8651 13.0429 12.8261 13.0185L12.7968 13.0006C12.761 12.9779 12.7284 12.9535 12.7008 12.9324C12.6878 12.9226 12.6747 12.9129 12.6601 12.9031L2.24859 4.78278C1.90528 4.51465 1.68563 4.12789 1.63356 3.69563C1.57987 3.26337 1.69864 2.83598 1.96711 2.4931C2.23557 2.15021 2.62281 1.93083 3.05561 1.87883C3.4884 1.82521 3.91632 1.94383 4.25963 2.21197L13.1775 9.16877C13.4704 9.3979 13.8836 9.3979 14.1765 9.16877L22.795 2.44435C23.2148 2.10634 23.5565 1.89346 23.9811 1.87071L24.0446 1.86583C24.069 1.86746 24.0837 1.86746 24.0983 1.86746C24.6059 1.86746 25.0762 2.09496 25.3869 2.4931C25.6554 2.83598 25.6749 3.25199 25.6879 3.95401V26.5453H25.6863Z"
    fill="#D71D24" />
  <path
    d="M48.2047 23.0496H38.7255V17.3733H46.8005C48.5952 17.3733 50.0563 15.914 50.0563 14.1216C50.0563 12.3292 48.5952 10.8699 46.8005 10.8699H38.7255V6.50342H48.2047C49.9993 6.50342 51.4604 5.04413 51.4604 3.25171C51.4604 1.45929 49.9993 0 48.2047 0H35.4697C33.6751 0 32.214 1.45929 32.214 3.25171V26.3013C32.214 28.0937 33.6751 29.553 35.4697 29.553H48.2047C49.9993 29.553 51.4604 28.0937 51.4604 26.3013C51.4604 24.5073 49.9993 23.0496 48.2047 23.0496ZM48.4325 14.1216C48.4325 15.0203 47.7003 15.7532 46.7989 15.7532H35.4681C34.5683 15.7532 33.8345 15.0219 33.8345 14.1216C33.8345 13.2213 34.5667 12.4901 35.4681 12.4901H46.7989C47.7003 12.4901 48.4325 13.2213 48.4325 14.1216ZM35.4697 1.62017H48.2047C49.1044 1.62017 49.8382 2.35144 49.8382 3.25171C49.8382 4.15198 49.1061 4.88325 48.2047 4.88325H37.1033V10.8699H35.4697C34.8742 10.8699 34.3178 11.0324 33.8362 11.3135V3.25333C33.8362 2.35306 34.5683 1.62017 35.4697 1.62017ZM48.2047 27.9312H35.4697C34.57 27.9312 33.8362 27.2 33.8362 26.2997V16.9281C34.3161 17.2076 34.8742 17.3717 35.4697 17.3717H37.1033V24.6681H48.2047C49.1044 24.6681 49.8382 25.3994 49.8382 26.2997C49.8366 27.2 49.1044 27.9312 48.2047 27.9312Z"
    fill="#0682C1" />
  <path
    d="M86.5835 0H78.8973C77.1027 0 75.6416 1.45929 75.6416 3.25171V26.3013C75.6416 28.0937 77.1027 29.553 78.8973 29.553C80.692 29.553 82.1531 28.0937 82.1531 26.3013V18.4767H86.5835C91.6843 18.4767 95.8333 14.3329 95.8333 9.23836C95.8333 4.14386 91.6843 0 86.5835 0ZM80.5309 26.3013C80.5309 27.2 79.7987 27.9328 78.8973 27.9328C77.9959 27.9328 77.2638 27.2016 77.2638 26.3013V18.0331C77.7454 18.3126 78.3018 18.4767 78.8973 18.4767H80.5309V26.3013ZM86.5835 16.8549H78.8973C77.9976 16.8549 77.2638 16.1237 77.2638 15.2234C77.2638 14.3247 77.9959 13.5919 78.8973 13.5919H86.5835V13.587C88.9411 13.5317 90.8415 11.6044 90.8415 9.23674C90.8415 6.86905 88.9395 4.94175 86.5835 4.8865V4.88163H80.5293V11.9701H78.8957C78.3002 11.9701 77.7438 12.1326 77.2621 12.4137V3.25171C77.2621 2.35306 77.9943 1.62017 78.8957 1.62017H86.5819C90.7878 1.62017 94.2079 5.03763 94.2079 9.23674C94.2079 13.4358 90.7895 16.8549 86.5835 16.8549ZM89.2194 9.23836C89.2194 10.7464 87.9909 11.9717 86.4827 11.9717H82.1531V6.50342H86.4827C87.9926 6.50342 89.2194 7.73033 89.2194 9.23836Z"
    fill="#1D3D70" />
  <path
    d="M70.3226 23.4966H61.4519V3.69873C61.4519 1.90631 59.9908 0.447021 58.1962 0.447021C56.4015 0.447021 54.9404 1.90631 54.9404 3.69873V26.7483C54.9404 28.5408 56.4015 30 58.1962 30H70.3226C72.1172 30 73.5783 28.5408 73.5783 26.7483C73.5783 24.9559 72.1172 23.4966 70.3226 23.4966ZM58.1962 2.06881C59.0959 2.06881 59.8297 2.80008 59.8297 3.70036V23.4966H58.1962C57.6007 23.4966 57.0442 23.6591 56.5626 23.9403V3.69873C56.5626 2.80008 57.2948 2.06881 58.1962 2.06881ZM70.3226 28.3799H58.1962C57.6999 28.3799 57.2574 28.1572 56.9564 27.8079C56.9303 27.777 56.9059 27.7445 56.8815 27.712C56.8766 27.7055 56.8701 27.6974 56.8652 27.6909C56.8441 27.6616 56.8246 27.6307 56.805 27.5999C56.7985 27.5885 56.7904 27.5771 56.7839 27.5657C56.7676 27.5365 56.7513 27.5072 56.7367 27.478C56.7286 27.4617 56.7204 27.4471 56.7139 27.4308C56.7009 27.4032 56.6895 27.3756 56.6781 27.3463C56.67 27.3268 56.6635 27.3057 56.6553 27.2862C56.6456 27.2602 56.6374 27.2342 56.6293 27.2082C56.6228 27.1838 56.6163 27.1578 56.6098 27.1335C56.6033 27.1091 56.5984 27.0863 56.5935 27.062C56.587 27.0311 56.5838 26.9986 56.5789 26.9677C56.5756 26.9482 56.5724 26.9287 56.5707 26.9092C56.5659 26.8572 56.5626 26.8036 56.5626 26.7516C56.5626 25.8529 57.2948 25.12 58.1962 25.12H70.3226C71.2224 25.12 71.9562 25.8513 71.9562 26.7516C71.9562 27.6519 71.2224 28.3799 70.3226 28.3799Z"
    fill="#359150" />
</svg>