<svg xmlns="http://www.w3.org/2000/svg" viewBox="0 0 256 256">
  <path fill="#EA6618"
    d="M256 236.393515V19.6065524c0-8.893291-5.922878-16.3988995-14.037333-18.7994074l-9.214984 5.51382-102.264551 109.037037-3.206095 10.021249-1.87327 9.618963 31.889609 119.18019 4.934095 1.821461h74.16618c10.82819 0 19.606349-8.777821 19.606349-19.60635" />
  <path fill="#d65813"
    d="M0 19.6064847V236.393448c0 6.704084 3.3666032 12.619174 8.4991323 16.154751l6.2882539-3.011048L123.033397 133.643649l4.24364-8.264466.158476-7.989503L97.9751958 5.3050243 93.5141587.0001354H19.6063492C8.7781587.0001354 0 8.7782942 0 19.6064847" />
  <path fill="#e05e11"
    d="M127.276902 125.379183L241.962531.8074159c-1.765926-.5224974-3.633778-.8072805-5.569016-.8072805H93.5143619L127.276902 125.379183z" />
  <path fill="#de5c16"
    d="M19.6064847 256H162.227606l-34.950772-130.620952L8.4992677 252.548402C11.6569397 254.723725 15.4820402 256 19.6064847 256" />
  <path fill="#FFF"
    d="M94.9181291 97.0292825h14.2252699c5.667555 21.3864975 12.118349 40.1530585 19.315132 57.0856295 8.152043-19.050666 14.127408-37.829756 19.185439-57.0856295h13.441693c-6.020063 23.9261795-15.867597 48.0399575-27.131597 72.9298625h-11.889778c-10.819725-23.58654-20.030984-47.836783-27.1461589-72.9298625zM47.9982392 59.9745693H79.6288V195.611903H47.8587259v-10.455704h19.4708995V70.1515852H47.9982392V59.9745693zM208.166739 70.1516868h-19.331725V185.156301h19.470899v10.455703h-31.769735V59.9746709h31.630561v10.1770159z" />
</svg>