<svg xmlns="http://www.w3.org/2000/svg" viewBox="0 0 100 100">
  <path fill="#FF6B00" d="M0 0h100v100H0z"/>
  <path fill="#FFF" d="M51.3 54.1c0-.4.3-.8.8-.8h10.6v-5.4H52.1c-.4 0-.8-.3-.8-.8v-1.8c0-.4.3-.8.8-.8h13.2v-5.6H45.1c-.4 0-.8.4-.8.8v21.6h7.1v-7.2zm-9.9-15.4H19.9c-.4 0-.8.4-.8.8v21.6h7.1v-16c0-.4.4-.8.8-.8h7.3c.4 0 .8.4.8.8v16h7V39.5c0-.4-.3-.8-.7-.8zm41.9 21.1l2.5 1.5 2.8-4.4-2.6-1.6v-8.6c0-2.8-.7-4.8-2.1-6.1-1.3-1.2-3.8-1.8-7.3-1.8H67v5.6h8c1.5 0 2.6.3 3.2 1 .6.7 1 1.8 1 3.5V51l-6-3.8-2.8 4.5 6.3 3.9-.2.1H63.1v5.6h13.7c2.8-.1 5.1-.6 6.5-1.5zm-71.8 1.4h5.6v-5.6h-5.6v5.6z"/>
</svg>
